<?xml version="1.0" encoding="UTF-8"?>
<svg id="Layer_2" data-name="Layer 2" xmlns="http://www.w3.org/2000/svg" viewBox="0 0 512 486.66">
  <defs>
    <style>
      .cls-1 {
        stroke-width: 0px;
      }
    </style>
  </defs>
  <g id="Layer_1-2" data-name="Layer 1">
    <path class="cls-1" d="m512,230.99v6c-3.13,2.59-5.96,5.7-9.44,7.67-15.49,8.77-31.12,17.32-46.83,25.71-3.49,1.86-4.9,3.88-4.87,8,.2,30.99-.05,61.99.23,92.98.06,7.22-2.41,11.66-8.81,15.16-59.46,32.43-118.83,65.04-178.12,97.78-5.76,3.18-10.53,3.18-16.3,0-59.29-32.74-118.66-65.35-178.12-97.78-6.4-3.49-8.88-7.93-8.82-15.15.28-30.99.03-61.99.23-92.98.03-4.12-1.38-6.14-4.87-8-15.71-8.38-31.33-16.93-46.83-25.71C5.96,242.69,3.13,239.58,0,236.99,0,234.99,0,232.99,0,230.99c1.96-2.45,3.73-5.1,5.92-7.33,9.58-9.73,19.28-19.34,28.93-28.99,7.29-7.29,14.58-14.57,22.54-22.52-3.33-3.02-6.53-5.67-9.44-8.6C31.93,147.4,15.98,131.18,0,114.98c0-2,0-4,0-6,2.54-2.52,4.66-5.78,7.67-7.44C67.55,68.47,127.54,35.59,187.51,2.68c7.51-4.12,10.6-3.65,16.76,2.5,15.92,15.89,31.82,31.81,47.73,47.72,1.25,1.25,2.57,2.45,4.84,4.61,1.34-1.9,2.2-3.6,3.48-4.88,15.75-15.83,31.54-31.62,47.34-47.4,6.3-6.29,9.28-6.69,17.19-2.36,15.77,8.63,31.53,17.28,47.27,25.95,1.6.88,3.2,1.81,4.59,2.97,3.62,3.02,4.57,8.2,2.41,12.19-2.22,4.1-6.9,6.1-11.5,4.68-1.88-.58-3.66-1.58-5.41-2.53-13.15-7.18-26.34-14.28-39.37-21.67-3.01-1.71-4.74-1.54-7.2.97-13.3,13.57-26.81,26.93-40.22,40.37-.86.86-1.59,1.86-2.61,3.07,55.67,30.58,110.93,60.93,165.08,90.67,15.76-15.75,31.02-30.99,46.3-46.26-1.03-.59-2.58-1.52-4.16-2.39-15.31-8.42-30.65-16.8-45.94-25.27-6.48-3.59-8.6-9.16-5.76-14.42,2.97-5.51,8.8-6.7,15.64-2.96,20.45,11.18,40.9,22.34,61.2,33.78,2.71,1.53,4.56,4.6,6.8,6.95v6c-9.74,9.96-19.43,19.96-29.22,29.86-9.11,9.22-18.33,18.33-28.49,28.48,1.81,1.25,3.52,2.1,4.81,3.38,15.7,15.61,31.37,31.26,46.97,46.97,2.2,2.22,3.96,4.87,5.93,7.31Zm-430.97,53.26c0,27.61.07,54.27-.08,80.92-.02,3.46,1.08,5.25,4.12,6.91,51.99,28.42,103.91,56.97,155.85,85.49,1.52.83,3.07,1.6,5.09,2.65,0-1.85,0-2.84,0-3.84,0-32.16-.03-64.33.02-96.49.01-7.12,4.32-11.89,10.22-11.71,5.76.18,9.59,4.76,9.75,11.69.03,1.17,0,2.33,0,3.5,0,30.33,0,60.66,0,90.99v5.81c1.59-.78,2.47-1.18,3.31-1.64,52.82-29,105.61-58.02,158.48-86.93,2.64-1.45,3.23-3.17,3.23-5.91-.08-25.83-.05-51.66-.06-77.49,0-1.08-.16-2.15-.28-3.81-2.25,1.18-4,2.06-5.72,3.01-32.83,18.02-65.65,36.05-98.48,54.07-10.01,5.49-12.15,5.17-20.39-3.07-15.32-15.32-30.63-30.64-45.96-45.95-1.27-1.27-2.6-2.47-4.13-3.91-1.52,1.43-2.86,2.63-4.13,3.9-15.56,15.55-31.11,31.11-46.66,46.66-7.35,7.35-10.01,7.72-19.25,2.64-32.97-18.11-65.93-36.22-98.9-54.33-1.72-.94-3.47-1.82-6.03-3.16Zm11.12-111.81c1.12.78,1.62,1.21,2.19,1.53,52.81,29.01,105.64,57.98,158.4,87.08,2.86,1.58,4.86.86,7.31-.48,51.92-28.56,103.86-57.07,155.79-85.6,1.24-.68,2.42-1.5,3.82-2.38-.92-.62-1.44-1.04-2.02-1.36-52.81-29.01-105.63-57.99-158.39-87.09-2.88-1.59-4.85-.84-7.31.52-26.81,14.8-53.67,29.52-80.51,44.26-26.25,14.42-52.51,28.83-79.29,43.54ZM27.63,113.28c15.57,15.6,30.81,30.87,46.28,46.36,54.67-30.03,109.88-60.36,165.4-90.86-1.32-1.43-2.29-2.54-3.33-3.58-13.06-13.08-26.24-26.04-39.12-39.3-2.91-2.99-4.88-3.04-8.41-1.09-45.99,25.44-92.08,50.7-138.14,76.01-7.7,4.23-15.4,8.46-22.68,12.45Zm211.92,163.24c-55.85-30.67-111.19-61.05-165.71-90.99-15.69,15.7-30.95,30.96-46.27,46.29,1.13.64,2.69,1.55,4.28,2.42,48.26,26.51,96.51,53.04,144.78,79.52,5.38,2.95,11.33,8.56,16.17,7.77,5.14-.84,9.36-7.76,13.83-12.18,10.88-10.75,21.68-21.6,32.93-32.83Zm198.88-91.13c-54.9,30.15-110.19,60.51-165.93,91.12,14.56,14.55,28.68,28.44,42.48,42.63,3.08,3.16,5.21,3.06,8.82,1.06,52.28-28.86,104.64-57.57,156.98-86.32,1.4-.77,2.75-1.65,3.96-2.38-15.38-15.32-30.58-30.44-46.32-46.12Z"/>
    <path class="cls-1" d="m404.54,68.01c-5.4-.14-9.71-4.71-9.57-10.13.14-5.35,4.83-9.84,10.09-9.66,5.25.18,9.87,5.03,9.7,10.18-.17,5.26-4.94,9.74-10.22,9.61Z"/>
    <path class="cls-1" d="m256.09,334.86c-5.16.06-9.95-4.64-10.01-9.85-.06-5.22,4.56-9.92,9.82-9.98,5.25-.06,9.95,4.54,10.01,9.79.06,5.19-4.62,9.97-9.83,10.04Z"/>
  </g>
</svg>