<?xml version="1.0" encoding="UTF-8"?>
<svg id="Layer_2" data-name="Layer 2" xmlns="http://www.w3.org/2000/svg" viewBox="0 0 512 512">
  <rect width="512" height="512" fill="#0000" stroke-width="0"/>
  <g id="Layer_1-2" data-name="Layer 1-2">
    <g>
      <path d="m128.84,375.95v-5.64c.62-.68.24-1.49.35-2.25v-2.36c-.05-.6.16-1.25-.35-1.76v-4.23c.79-3.82.57-7.7.6-11.52.16-15.04.49-30.09.92-45.11.38-13.01.68-26.05,1.71-39.04.46-5.86.49-11.74.65-17.59.24-9.05.7-18.08,1.03-27.11.65-17.13,1.52-34.24,2.14-51.37.16-4.39.57-8.86,1.92-13.2,3.33-10.71,12.85-15.86,23.94-14.48,10,1.25,19.06,5.1,27.6,10.11,9.3,5.45,19.17,8.78,29.87,9.76,2.14.19,3.66-.46,4.8-2.2,9.62-14.18,15.26-29.6,14.64-46.98-.14-3.69-1.49-6.86-4.31-9.33-2.09-1.84-4.34-2.49-7.16-1.55-4.47,1.52-6.72-.27-6.75-4.99,0-2.41.6-4.66,1.55-6.83,1.03-2.41,2.82-3.93,5.56-4.31,3.39-.49,6.83-.54,10.19-.19,3.52.35,6.94.46,10.3-.84h4.93c2.98.57,6.02.7,9.03,1.06,9.14,1.06,14.77,5.88,17.08,14.8,1.19,4.58,1.68,9.22,1.57,13.96-.24,11.06.05,22.09,2.82,32.91,1.06,4.09,2.3,8.13,4.12,11.98.98,2.09,2.52,2.74,4.85,2.52,10.84-1.03,20.76-4.47,30.17-9.95,8.24-4.83,16.97-8.4,26.59-9.81,13.96-2.06,24.88,6.4,25.92,20.57.81,11.49,1.03,22.99,1.55,34.48.79,17.35,1.52,34.73,2.17,52.1.41,10.54.81,21.12,1.38,31.66.98,18.41,1.63,36.84,2.14,55.25.22,7.51.38,15.04.38,22.55,0,5.53.54,11.03.41,16.56-.03,1.27.27,2.71-1.19,3.42-1.52.7-2.71-.14-3.82-1.08-6.02-5.26-11.79-10.79-17.62-16.21-13.66-12.74-27.32-25.45-41.04-38.11-.24-.24-.52-.49-1.11-.33,3.25,11.25,6.23,22.61,9.49,33.86.27.89.54,1.79.79,2.71,1.25,4.72,1.46,4.83,6.29,3.63,10.06-2.49,19.73,4.93,19.73,15.32,0,2.22.49,3.85,2.52,4.93,1.46.79,2.55,2.01,3.61,3.31,1.55,1.92,3.33,3.52,5.69,4.58,2.58,1.17,3.12,3.77,1.14,5.8-1.65,1.71-2.47,3.66-3.14,5.77-.22.68-.43,1.38-.87,1.92-2.79,3.5-4.72,7.35-6.05,11.68-.98,3.2-4.07,4.77-7.21,5.69-11.87,3.42-24.04,5.26-36.32,6.51-26,2.66-52.07,1.95-78.15,1.87-18.54-.05-37.06-.89-55.38-4.04-6.61-1.14-13.15-2.55-19.57-4.45-4.28-1.27-7.43-3.96-8.27-8.7-.38-2.11-1.19-3.96-2.9-5.48-1.6-1.41-2.44-3.47-3.06-5.48-.62-1.92-1.36-3.66-2.79-5.18-1.82-1.98-1.55-4.66.79-5.64,2.66-1.14,4.34-3.09,6.1-5.12,2.3-2.6,5.69-8.92,6.48-12.39.76-3.39,2.63-6.26,5.58-7.83,4.66-2.47,9.57-4.66,15.1-2.74,2.25.79,3.85.52,4.58-2.09,3.47-12.17,6.86-24.37,10.3-36.89-4.99,3.2-8.7,7.35-12.71,11.03-11.49,10.6-23.23,20.9-34.67,31.53-3.85,3.58-7.56,7.4-11.82,10.54-1.57,1.17-3.12,2.44-4.72.05l-.05-.08h0Z" fill="#be942e" stroke-width="0"/>
      <path d="m129.44,365.32v2.79c-.16.52-.35.54-.57.05v-2.82c.19-.49.38-.52.6,0h-.03v-.03Z" fill="#dcc48f" stroke-width="0"/>
      <path d="m128.84,368.17c.19-.03.38-.05.57-.05.11.81.19,1.6-.57,2.17v-2.11Z" fill="#d3b574" stroke-width="0"/>
      <path d="m129.44,365.32h-.6v-1.41c.76.22.68.81.6,1.38h0v.03Z" fill="#e4d1a9" stroke-width="0"/>
      <path d="m319.44,188.82c-8.51,4.91-16.89,3.2-25.07,2.01-9.03-1.33-17.89-3.71-26.27-7.45-1.71-.76-3.36-1.63-5.07-2.47-2.66-1.3-4.61-4.93-6.89-4.88-2.09.05-4.23,3.36-6.8,4.55-14.72,6.75-29.93,11.6-46.38,11.11-1.76-.05-3.5.95-5.34-.22-1.55-.98-3.2-1.95-5.2-2.14-1.11,8.35-.95,16.73-1.33,25.05-1.41,30.55-2.55,61.13-3.8,91.68-.19,4.83-.54,9.62-.62,14.45-.05,3.66-3.39,4.36-5.61,7.18,0-3.17-.08-5.56,0-7.97,1.33-31.96,2.68-63.95,4.01-95.91.49-11.76.95-23.5,1.44-35.27.05-1.3.16-2.52-1.08-3.5-2.93-2.3-5.75-4.74-9.08-7.48-.27,5.07-.57,9.57-.76,14.07-.79,18.11-1.55,36.19-2.36,54.3-1.06,23.75-2.2,47.47-3.28,71.21-.24,5.53-.92,11.06-.65,16.56.24,4.66-2.33,6.94-4.99,8.95,0-7.73-.24-15.67.05-23.58.7-19.76,1.65-39.5,2.52-59.23.84-19.52,1.73-39.01,2.58-58.53.38-8.7.65-17.4,1.03-26.1.05-1.49-.16-2.68-1.41-3.71-3.69-3.06-7.26-6.23-11.47-9.89-.43,8.92-.87,17.16-1.25,25.43-1.11,24.56-2.22,49.12-3.33,73.68-.79,17.97-1.55,35.97-2.36,53.94-.6,13.17-1.27,26.32-1.76,39.47-.11,2.71-1.3,4.31-3.61,5.5,0-5.31-.16-10.52.03-15.72.76-19.52,1.68-39.01,2.52-58.53.87-20.33,1.76-40.66,2.58-60.99.87-21.14,1.65-42.32,2.58-63.46.11-2.63-.73-2.71-2.82-1.84-3.44,1.44-6.48,3.58-9.89,5.37-.16-10.19,4.85-18.08,12.77-19.84,5.01-1.11,10.03-.46,14.96.87,7.08,1.9,13.69,4.91,19.92,8.67,9.92,6.02,20.63,9.41,32.23,10,.3,0,.6.16,1.25.35-1.27,1.71-2.39,3.25-3.8,5.15,6.64.68,11.85-2.25,17.57-4.8-.73,3.23-1.36,6.02-2.06,9.24,5.01-1.9,9.05-4.55,12.82-7.64,1.63-1.33,2.63-1.73,4.2.11,1.65,1.92,3.28,5.07,5.48,5.04,1.71,0,3.47-3.09,5.07-4.93,1.38-1.6,2.44-1.95,4.26-.41,2.71,2.28,5.96,3.69,9.41,4.58,4.53,1.17,5.2.68,4.99-3.74,2.87.49,5.69,1.03,8.57,1.46,1.3.19,2.87,1.33,3.82-.19,1.27-1.98-1.49-2.3-1.82-3.88,3.77-.54,7.64-1.06,11.49-1.71,7.73-1.3,14.77-4.34,21.52-8.27,8.43-4.91,17.16-9.05,27.05-10.25,13.77-1.68,20.76,6.32,21.33,20.03-3.36-1.76-6.61-3.47-9.87-5.15-2.09-1.08-3.06-1.03-2.93,1.92,1.52,33.83,2.93,67.69,4.34,101.55,1.03,25.16,2.01,50.31,3.04,75.47.27,7.02.62,14.07.98,21.52-3.09-1.57-4.2-3.63-4.31-6.61-.7-17.97-1.55-35.97-2.36-53.94-.84-18.68-1.71-37.35-2.55-56.06-.81-18.11-1.6-36.19-2.39-54.3-.38-8.81-.81-17.59-1.25-27.11-4.36,3.8-8.21,7.16-12.12,10.49-1.08.92-.84,2.11-.79,3.25.79,19.73,1.55,39.5,2.39,59.23.81,19.27,1.71,38.55,2.58,57.82.65,14.69,1.27,29.38,1.9,44.08.08,1.84,0,3.71,0,5.83-3.42-2.3-5.64-4.69-5.8-9.22-.57-18.46-1.6-36.89-2.44-55.35-.87-18.92-1.73-37.84-2.58-56.76-.62-14.2-1.22-28.44-1.87-43.51-3.58,3.01-6.75,5.64-9.87,8.38-.89.79-.41,2.01-.35,3.04,1.63,40.55,3.25,81.11,4.88,121.66.19,5.01.87,10,.46,15.53-3.28-2.49-5.53-4.53-5.69-9.05-1.06-30.33-2.55-60.64-3.85-90.97-.54-12.23-.98-24.42-1.49-37.16,0,0,.05-.05.05-.05Z" fill="#fff" stroke-width="0"/>
      <path d="m305.12,390.26c.24.92-.49,2.39,1,2.63,1.68.3,1.19-1.38,1.57-2.22,2.11-4.61,4.23-8.62,10.38-9.27,6.72-.73,13.31-2.63,19.92-4.2,6.53-1.55,9.51.11,10.84,6.64.35,1.73,1.17,2.33,2.82,2.49,2.36.24,8.21,5.45,8.59,7.48.46,2.33-2.41,8.24-4.91,9.54-1.76.92-2.14,2.17-2.17,3.98-.08,5.42-1.14,6.64-6.45,8-13.91,3.55-28.06,5.39-42.34,6.59-20.06,1.68-40.15,2.41-60.23,1.9-24.42-.62-48.82-1.76-72.81-6.94-2.41-.52-4.77-1.14-7.16-1.76-4.8-1.27-5.75-2.28-6.02-7.26-.14-2.33-.6-3.93-2.95-4.93-2.41-1.03-2.52-3.71-3.42-5.86-1.06-2.55-.35-4.28,1.49-6.1,2.11-2.09,3.47-5.07,7.26-4.74,1.46.14,1.92-1.38,2.14-2.76.84-5.1,4.55-7.89,9.43-6.64,8.51,2.17,17.19,3.69,25.73,5.69,3.42.81,4.2,4.91,5.94,7.7.57.92-.08,2.74,1.6,2.74,1.55,0,.95-1.6,1.3-2.49,1.27-3.14,5.1-5.58,8.67-5.34,8.21.57,16.37.81,24.64.33,3.74-.22,6.7,3.5,8.67,6.7,1.44,2.3,2.03,1.82,3.09.19,1.08-1.68,1.79-3.55,2.14-5.53.19-1.03.41-2.06,1.9-2.09,1.49-.03,1.76.98,1.98,2.01.41,2.11,1.14,4.07,2.33,5.86.87,1.33,1.57,1.68,2.82,0,3.09-4.15,6.1-7.86,12.58-7.02,8.13,1.06,16.43.33,24.56-1.03,2.79.98,4.88,2.52,5.1,5.77h-.05v-.03Z" fill="#fff" stroke-width="0"/>
      <path d="m287.8,166.11c-8.95-.79-11.14-2.44-13.58-10.19-2.79-8.89-3.8-18.11-4.88-27.32-.11-.95.6-2.79-1.41-2.49-1.63.22-.84,1.76-.76,2.6,1.25,12.36,2.25,24.8,8.43,36.03.65,1.19,1.33,2.44,1.27,4.17-4.64-.62-8.43-2.74-11.93-5.5-1.08-.87-1.27-2.11-1.44-3.44-1.33-10.76-1.3-21.58-1.38-32.39,0-1.03.98-3.04-1.19-2.95-2.06.05-1.22,1.98-1.17,3.06.46,11.28-.19,22.58,1.6,33.78.16.98-4.66,6.99-5.64,7.16-.7.11-.95-.52-1.36-.87-3.09-2.66-4.53-5.12-2.95-9.84,3.5-10.49,3.98-21.63,4.91-32.64.08-.89.43-2.01-1.08-2.03-1.71-.03-1.36,1.33-1.41,2.28-.41,8.35-1.46,16.59-2.9,24.83-.19,1.17-.57,2.28-.68,3.44-.81,8.29-6.42,12.52-13.39,15.97.08-2.6.35-5.07,1.6-6.97,6.4-9.81,8.21-21.06,10.44-32.2.27-1.38.54-2.77.68-4.17.08-.89.87-2.3-.92-2.44-1.44-.11-1.11,1.19-1.27,2.03-1.33,7.37-2.68,14.75-4.88,21.96-.57,1.9-1.44,3.71-1.92,5.64-2.33,8.92-9.68,11.22-17.92,13.77,2.44-3.74,4.47-6.78,6.45-9.87,9.38-14.72,14.58-30.63,13.36-48.28-.16-2.39.79-3.2,3.04-2.98,1.17.11,2.33,0,4.01,0-3.74-6.23-8.08-11.47-14.96-14.07-3.63-1.36-6.37-.24-8.54,2.82-.38.54-.49,1.38-1.33,1.52-1.14-7.73,2.98-8.81,9.57-8.48,2.11.11,3.96,1.25,5.69,2.55,3.2,2.36,7.02,3.88,10.17,5.99,3.96,2.68,5.37,1.44,8.65-.79,3.66-2.49,8.65-2.49,13.28-1.55,1.87.38,2.36,1.84,2.79,3.28,1.46,4.61,2.28,9.35,2.22,14.2-.11,12.69-.19,25.37,3.47,37.73,1.71,5.75,3.69,11.33,7.35,16.7h-.08v-.03Z" fill="#fff" stroke-width="0"/>
      <path d="m202.9,201.18c0-2.22-.79-4.96.22-6.56,1.11-1.73,4.07-.43,6.21-.65,14.58-1.6,28.68-4.99,41.58-12.01,4.01-2.2,6.34-2.58,10.41.14,8.65,5.8,18.87,8.08,28.98,10.19,5.53,1.17,11.09,2.09,16.75,1.68,2.6-.19,1.79,1.63,1.82,2.79.11,12.31-1.82,24.34-5.2,36.13-7.97,27.68-23.18,50.61-45.41,68.91-1.73,1.44-2.9,1.65-4.77.14-26.1-21.55-42.37-48.88-48.55-82.19-1.14-6.13-2.01-12.28-2.06-18.54h.03v-.03Z" fill="#fffefd" stroke-width="0"/>
      <path d="m214.58,325.77c-1.36-4.74-2.55-8.78-3.63-12.85-.65-2.41-1.6-2.55-3.31-.87-3.33,3.31-6.75,6.51-10.65,10.27,2.77-9.84,5.37-19.14,8.19-29.17,1.03,2.39,1.92,4.09,2.52,5.88.95,2.79,2.17,2.52,3.96.73,3.31-3.31,6.75-6.51,10.65-10.27.65,5.96,1.19,11.25,1.79,16.54.14,1.33-.35,3.17,1.38,3.58,1.55.38,1.95-1.44,2.71-2.36,1.79-2.17,3.44-4.42,5.53-7.1,2.01,6.78,3.85,13.09,5.75,19.41.24.79-.08,1.38-.49,1.95-2.9,4.39-5.77,8.78-9.14,13.88-1.3-6.97-2.47-13.23-3.61-19.46-.19-1.03,0-2.36-1.19-2.71-1.46-.43-1.92,1.08-2.58,1.95-2.55,3.33-5.01,6.72-7.86,10.6h-.03Z" fill="#fff" stroke-width="0"/>
      <path d="m277.91,300.15c2.22,2.9,4.15,5.39,6.1,7.86.62.79,1.08,2.09,2.39,1.6,1.17-.43,1-1.73,1.11-2.76.57-5.48,1.11-10.98,1.68-16.75,2.87,1.25,4.5,3.77,6.64,5.61,1.41,1.22,2.77,2.55,4.04,3.93,1.87,2.01,3.17,2.2,4.15-.79.57-1.76,1.46-3.42,2.44-5.69,2.79,9.92,5.45,19.33,8.08,28.73-.19.14-.41.24-.6.38-2.93-3.01-5.86-6.02-8.78-9.03-3.36-3.42-3.61-3.33-4.85,1.14-1,3.55-2.03,7.1-3.23,11.33-2.82-3.82-5.29-7.18-7.81-10.49-.68-.87-1.14-2.41-2.55-2.01-1.38.38-1.06,1.9-1.27,3.01-1.14,6.15-2.3,12.31-3.61,19.17-3.31-5.01-6.18-9.41-9.08-13.77-.46-.7-.73-1.41-.46-2.3,1.87-6.23,3.69-12.47,5.67-19.17,0,0-.05,0-.05,0Z" fill="#fff" stroke-width="0"/>
      <path d="m209.08,315.17c1.14,3.96,2.41,8.21,3.58,12.5.65,2.44,1.73,2.28,3.04.57,2.63-3.44,5.18-6.94,8.24-11.06,1.03,5.29,1.71,10.06,2.93,14.67,1.14,4.45.49,8.16-2.44,11.74-2.06,2.52-3.61,5.45-5.72,8.76-1.6-4.8-3.04-9.05-4.45-13.31-.33-1-.46-2.33-1.71-2.36-.98-.03-1.38,1.14-1.87,1.92-2.55,4.17-5.1,8.35-8.08,13.23-2.25-8.21-4.26-15.72-6.34-23.18-.3-1,.08-1.57.7-2.14,4.01-3.77,8.05-7.51,12.17-11.33,0,0-.05,0-.05,0Z" fill="#fff" stroke-width="0"/>
      <path d="m292.95,352.36c-3.06-4.8-5.72-8.95-8.4-13.07-.41-.62-.65-1.27-.54-1.98,1.14-6.53,2.3-13.04,3.58-20.3,2.98,4.04,5.45,7.43,7.97,10.76.54.7.98,1.73,2.14,1.6,1.25-.16,1.11-1.36,1.36-2.2,1.22-4.12,2.39-8.27,3.5-12.14,4.17,3.93,8.29,7.89,12.47,11.79.79.73.41,1.44.19,2.25-2.01,7.32-3.96,14.64-6.13,22.72-2.9-4.69-5.45-8.84-8.02-12.98-.54-.87-.87-2.22-2.09-2.11s-1.3,1.46-1.63,2.44c-1.38,4.23-2.82,8.43-4.42,13.23,0,0,.03,0,.03,0Z" fill="#fff" stroke-width="0"/>
      <path d="m283.16,341.57c3.04,4.72,5.61,8.73,8.21,12.74.49.76.81,1.84,1.95,1.82,1.49,0,1.38-1.44,1.71-2.33,1.41-4.09,2.74-8.21,4.42-13.34,3.12,5.37,6.05,10.03,8.51,14.91.73,1.44-.7,3.33-1.19,5.01-.76,2.58-1.52,5.15-2.28,7.75-.27.92-.52,1.84-1.65,2.03-1.22.22-1.55-.79-2.01-1.57-1.49-2.52-2.98-5.04-4.5-7.56-1.14-1.9-2.17-1.52-2.85.33-.84,2.3-1.79,4.61-2.28,7.02-.54,2.76-2.01,3.44-4.66,3.39-5.04-.11-4.61-.11-6.18-4.96-2.41-7.37.84-14.04,1.76-21.01.14-1.14.52-2.22,1-4.26h0l.03.03Z" fill="#fff" stroke-width="0"/>
      <path d="m228.49,341.52c1.44,6.61,2.98,12.25,3.8,17.97.54,3.82-1.44,7.54-2.01,11.33-.16,1.08-1.17.98-1.98.98-1.3,0-2.6-.22-3.88-.05-2.3.27-3.36-.76-3.9-2.93-.54-2.28-1.38-4.47-2.14-6.67-.3-.87-.41-2.06-1.44-2.22-1.3-.22-1.63,1.11-2.14,1.98-1.41,2.3-2.77,4.64-4.12,6.97-.41.7-.76,1.49-1.82,1.36-.98-.11-1.38-.81-1.63-1.63-1.19-3.9-2.39-7.83-3.52-11.76-.27-.92-.24-1.84.3-2.71,2.6-4.26,5.2-8.54,8.19-13.45,1.49,4.36,2.71,8.08,4.01,11.74.49,1.36.22,3.5,2.06,3.66,1.79.16,2.09-1.98,2.9-3.17,2.39-3.47,4.58-7.05,7.35-11.39h-.03Z" fill="#fff" stroke-width="0"/>
      <path d="m261.34,328.02c1.57,11.28,3.12,22.55,4.69,33.86.27,1.98,5.23,7.05,6.97,7.26.81.11,1.19-.57,1.73-1,.98-.79,1.57-2.03,2.87-2.41.19.22.41.38.46.57,1.68,5.75,1.68,5.69-4.26,5.45-6.64-.27-12.09,1.98-15.99,7.64-1.03,1.49-2.98,1.52-4.07-.05-4.01-5.77-9.49-8.02-16.35-7.62-5.72.35-5.86.05-3.39-6.02h.33c1.82.7,2.55,4.23,4.85,2.87,2.95-1.73,6.23-3.36,6.72-7.81,1.22-10.98,2.9-21.88,4.39-32.83,1.71.19.73,1.33.73,2.09-.57,10.54-1.17,21.09-1.73,31.63-.11,1.84,4.47,9.43,6.07,10.25.98.49,1.22-.33,1.63-.81,3.47-3.88,6.13-7.7,5.37-13.66-1.17-9.05-1.19-18.24-1.71-27.38,0-.79-.98-1.9.7-2.11v.08h-.03Z" fill="#fffefe" stroke-width="0"/>
      <path d="m296.47,257.87c2.93,10.3,5.88,20.14,8.46,30.09.87,3.36-1.79,6.15-2.9,9.16-.35.98-1.19.08-1.65-.35-3.25-3.06-6.48-6.15-9.76-9.19-1.03-.95-1-2.03-.89-3.2.52-4.8,1.11-9.57,1.52-14.37.38-4.53,2.85-8.02,5.2-12.12h.03v-.03Z" fill="#fffffe" stroke-width="0"/>
      <path d="m214.99,258.27c5.48,5.94,5.01,13.34,6.37,20.28,1.25,6.23-.57,10.6-5.61,13.96-.11.05-.16.19-.24.24-2.09,1.36-3.06,4.42-5.86,4.42-1.27,0-3.14-8.54-2.55-10.71,2.6-9.35,5.23-18.7,7.89-28.19Z" fill="#fffffe" stroke-width="0"/>
      <path d="m312.41,306.52c-.81-3.06-1.36-6.21-2.44-9.16-2.39-6.51-2.95-13.23-3.23-20.03-.46-11.87-.68-23.75-1.52-35.57-.46-6.45,1.98-12.2,2.93-18.3.27-.46.41-1.14,1.19-.68,1.25,27.24,2.49,54.51,3.74,81.76-.05.73,1.08,1.84-.68,1.98Z" fill="#fffefe" stroke-width="0"/>
      <path d="m203.52,224.14c4.31,10.9,2.33,22.2,2.14,33.37-.11,6.8-.79,13.61-.7,20.41.08,9.79-3.25,18.84-5.58,28.08-1.36.11-1-.73-.79-1.46,1.25-27.03,2.52-54.05,3.77-81.08.62-.19.98.14,1.19.68,0,0-.03,0-.03,0Z" fill="#fffefe" stroke-width="0"/>
      <path d="m317.54,332.63c2.93,10.33,5.86,20.66,8.78,30.98.27.98.24,2.11-.98,2.2-2.03.11-4.26,2.47-6.13,0-2.66-3.44-5.01-7.1-7.62-10.57-.79-1.06-.41-1.92-.14-2.95,1.79-6.53,3.52-13.09,5.29-19.65h.79Z" fill="#fffffe" stroke-width="0"/>
      <path d="m194.82,332.63c1.9,6.91,3.82,13.82,5.67,20.76.3,1.14-7.94,13.17-9.14,13.34-2.01.24-4.07-.27-5.69-1.36-1.27-.87-.08-2.36.24-3.52,2.58-9.24,5.18-18.49,7.78-27.73.14-.52,0-1.22,1.14-1.49Z" fill="#fffffe" stroke-width="0"/>
      <path d="m300.78,373.02c9.33-1.44,18.6-3.06,27.68-5.58,2.71-.73,5.42-1.41,8.05-2.33,2.2-.79,3.25.14,4.09,2.01,1.68,3.8.43,6.94-3.47,7.86-7.62,1.76-15.29,3.28-22.91,5.01-1.76.41-2.14-.38-2.63-1.79-1.63-4.72-4.66-6.13-9.27-4.47-.54-.16-1.27.11-1.55-.68h0v-.03Z" fill="#fffefc" stroke-width="0"/>
      <path d="m209.3,373.72c-4.55-1.68-7.64-.27-9.27,4.45-.49,1.38-.79,2.25-2.6,1.84-7.97-1.76-16.05-3.09-23.91-5.37-2.74-.79-3.88-3.63-2.82-6.89.92-2.82,2.68-3.33,5.45-2.39,9.73,3.33,19.9,5.04,29.95,7.1,1.57.33,3.28-.41,4.8.57-.3.7-.89.79-1.55.68h-.05Z" fill="#fffefd" stroke-width="0"/>
      <path d="m209.3,373.72c.52-.22,1.03-.46,1.55-.68,4.8.35,9.6.68,14.37,1.08,5.04.46,10.08.41,15.1-.24,2.33-.3,4.12.54,5.15,2.76,1.03,2.17-1.41,2.3-2.03,3.5-1.33,2.55-3.61,2.76-6.21,3.01-7.64.68-15.23.08-22.82-.6-1.68-.14-2.44-.65-2.41-2.52.05-2.44-1.22-4.47-2.74-6.32h.05Z" fill="#fffefd" stroke-width="0"/>
      <path d="m300.78,373.02c.52.22,1.03.43,1.55.68-1.33,1.55-2.74,3.33-2.6,5.26.27,3.52-1.92,3.71-4.26,3.88-7.73.52-15.45,1.08-23.18.19-1.17-.14-6.37-4.39-6.51-5.34-.24-1.79,2.82-4.04,5.53-3.77,4.2.43,8.43.7,12.63.43,5.61-.38,11.22-.87,16.81-1.3h0l.03-.03Z" fill="#fffefd" stroke-width="0"/>
      <path d="m285.14,305.55c-3.9-5.07-7.37-9.54-10.82-14.01-.73-.95-.35-1.68.41-2.41,1-.98,1.82-2.17,2.87-3.06,1.41-1.22,1.79-3.96,4.09-3.63,2.22.3,5.39,5.53,5.18,7.89-.49,4.83-1.06,9.62-1.68,15.26h-.05v-.03Z" fill="#fffefd" stroke-width="0"/>
      <path d="m226.46,305.6c-.62-5.83-1.19-10.73-1.65-15.64-.19-2.11,3.23-7.02,5.15-7.7.54-.19.89-.08,1.22.3.3.35.62.7.87,1.11,1.71,2.49,5.5,4.26,5.29,7.05-.19,2.49-3.09,4.77-4.85,7.1-1.82,2.41-3.69,4.74-6.02,7.78h0Z" fill="#fffefd" stroke-width="0"/>
      <path d="m270.23,317.86c-2.14-5.15-2.58-10.08-3.74-14.77-1.08-4.36.6-7.73,4.55-10.03.6-.35,1.08-.6,1.49,0,1.52,2.3,4.15,3.98,2.79,7.64-1.95,5.37-3.31,10.98-5.1,17.16Z" fill="#fffefd" stroke-width="0"/>
      <path d="m241.45,318.1c-2.01-6.97-3.74-12.96-5.42-18.98-.38-1.3,2.39-6.1,3.52-6.34.19-.05.43,0,.65.05,2.6.76,5.77,6.34,5.15,9.11-1.14,5.1-1.87,10.27-3.9,16.16Z" fill="#fffefd" stroke-width="0"/>
      <path d="m277.53,353.31c-2.09-9.41-4.17-18.84-6.23-28.25l.62-.35c3.01,4.58,6.02,9.14,9,13.72.52.79.05,1.57-.11,2.36-.87,4.12-1.71,8.24-2.58,12.36-.22.05-.46.11-.68.16h-.03Z" fill="#fefdfb" stroke-width="0"/>
      <path d="m233.56,353.72c-.16-.76-.24-1.11-.33-1.46-2.03-10.03.19-19.17,6.64-27.43.08,2.63-4.77,25.24-6.32,28.87h0v.03Z" fill="#fefdfb" stroke-width="0"/>
      <path d="m205.37,387.5c-1.25-1.63-2.85-3.01-3.23-5.01-.49-2.52-.22-4.91,2.17-6.51,1.25-.84,2.71-1.36,3.74.08,1.52,2.11,2.49,4.5,1.33,7.18-.81,1.9-2.44,3.01-4.01,4.26Z" fill="#fefcf9" stroke-width="0"/>
      <path d="m302.6,384.32c-.95-1.98-1.11-4.01-.24-6.07.6-1.38.98-3.01,2.9-3.01s3.33,1.27,3.93,2.95c.68,1.98.89,4.09-.46,6.02-.73,1.03-1.41,2.11-2.11,3.17-2.66.68-3.74-.68-4.04-3.09h0l.03.03Z" fill="#fefdf9" stroke-width="0"/>
      <path d="m201.41,357.43c1.3,4.23,2.44,7.97,3.66,11.95-3.31.08-6.29-.95-9.33-1.38-1.49-.22-1.14-1.11-.52-1.98,1.95-2.71,3.9-5.45,6.15-8.59h.03Z" fill="#fefdfa" stroke-width="0"/>
      <path d="m310.22,357.43c2.22,3.09,4.09,5.75,6.02,8.35.84,1.17,1.17,2.03-.73,2.33-2.85.46-5.67,1-9,1.57,1.27-4.23,2.41-8,3.71-12.28h0v.03Z" fill="#fefdfa" stroke-width="0"/>
      <path d="m259.61,382.91c.35-1.36.24-2.68,1-3.82,1.06-1.52,2.06-3.01,3.14,0,.11.3.41.57.62.81,3.61,4.23,3.47,4.04-.76,7.75-2.71,2.39-3.25,1.14-3.61-1.44-.16-1.14-.3-2.3-.43-3.33h.03v.03Z" fill="#fefdfa" stroke-width="0"/>
      <path d="m251.91,383.27c-.16,2.28,0,4.83-1.36,5.64-1.46.87-2.74-1.57-4.09-2.49-3.23-2.14-3.17-2.76-.33-5.48.33-.33.62-.73,1.03-.92,1.14-.54.52-3.04,2.33-2.44,1.65.54,2.11,2.33,2.28,4.01.05.7.14,1.38.16,1.65h-.03v.03Z" fill="#fefdfa" stroke-width="0"/>
      <path d="m160.99,376.82c-.46-4.34,1.41-8.27,4.64-9.7,1.68-.76,2.68-.95,2.68,1.65.03,5.56-.3,6.13-7.32,8.05Z" fill="#fdfbf6" stroke-width="0"/>
      <path d="m350.93,375.32c-.11.6.19,1.82-.84,1.46-2.17-.76-4.66-1.17-6.13-3.12-1.46-1.92-.65-4.34-.43-6.48.11-1.17,1.57-.43,2.33-.14,2.68,1.03,5.1,5.07,5.07,8.27Z" fill="#fdfbf6" stroke-width="0"/>
      <path d="m224.21,284.3c-.49-4.47-.92-8.29-1.44-12.98,2.17,2.95,3.85,5.31,5.61,7.62.79,1,0,1.46-.52,1.98-1.06,1.03-2.17,2.01-3.63,3.39h-.03Z" fill="#fcfaf5" stroke-width="0"/>
      <path d="m288.4,274.4c-.27,3.12-.57,6.21-.84,9.33-.35-.03-.65.03-.79-.08-2.82-2.41-3.14-5.15-1-8.21.6-.84,1.22-1.71,1.82-2.55,1.36-.08,1.06.76.81,1.52Z" fill="#fefcf9" stroke-width="0"/>
      <path d="m216.45,363.97c.68,2.03.98,3.39,1.55,4.61.95,2.06.35,2.6-1.79,2.49-3.69-.19-3.85-.38-1.95-3.58.57-.98,1.19-1.92,2.22-3.52,0,0-.03,0-.03,0Z" fill="#fcfaf4" stroke-width="0"/>
      <path d="m294.98,364.51c1.52.68,1.79,1.9,2.33,2.85.54.95,1.87,1.9,1.17,3.01-.65,1.03-2.14.49-3.25.65-2.11.3-2.41-.57-1.65-2.36.54-1.27.89-2.63,1.41-4.15Z" fill="#fcfaf4" stroke-width="0"/>
      <path d="m255.81,93c-.14,1.38-.87,2.14-2.01,2.2-1.3.05-2.25-.68-2.17-2.09.05-1.19.87-1.79,2.09-1.79s1.79.81,2.06,1.71h.03v-.03Z" fill="#faf7ee" stroke-width="0"/>
      <path d="m302.6,384.32c1.49.84,2.2,2.71,4.04,3.09-.68.87-1.38,1.71-1.49,2.85-1.71-1.92-3.39-3.85-5.1-5.77.87-.05,1.71-.11,2.58-.16h-.03Z" fill="#be942e" stroke-width="0"/>
      <path d="m251.01,330.14c-.24-.7-.49-1.41-.73-2.09-.22-.89-.19-1.73.87-2.66.68,1.84.52,3.31-.14,4.77h0v-.03Z" fill="#dcc490" stroke-width="0"/>
      <path d="m198.56,304.55c.27.49.05,1.22.79,1.46,0,1.03-.33,1.92-1.19,2.71-.3-1.55-.24-2.9.41-4.17Z" fill="#dec77b" stroke-width="0"/>
      <path d="m261.34,328.02c-.24.7-.46,1.41-.7,2.11-.68-1.27-.54-2.6-.46-4.09,1.41.24,1.27,1.11,1.17,1.98Z" fill="#dfc99a" stroke-width="0"/>
      <path d="m312.41,306.52c.22-.65.46-1.33.68-1.98.68,1.25.68,2.58.46,4.23-.84-.68-1.06-1.44-1.14-2.25Z" fill="#dcc473" stroke-width="0"/>
      <path d="m251.83,318.67c.6.98.46,1.84-.14,2.06-1,.38-.65-.52-.54-.95.08-.3.33-.57.68-1.11Z" fill="#c8a24c" stroke-width="0"/>
      <path d="m309.32,222.79c-.41.22-.79.46-1.19.68.22-1.08.43-2.17.7-3.39,1.08.89.54,1.84.49,2.71Z" fill="#e7d69e" stroke-width="0"/>
      <path d="m259.66,318.64c.33.43.62.65.7.92.05.24-.14.57-.22.87-.22-.22-.54-.41-.65-.65-.08-.27.08-.6.16-1.14Z" fill="#c8a24c" stroke-width="0"/>
      <path d="m288.4,274.4c-.27-.52-.54-1.03-.81-1.52.14-.68.89-1.57,1.14-1.25.68.84.22,1.9-.33,2.79h0v-.03Z" fill="#e8d8a4" stroke-width="0"/>
      <path d="m203.52,224.14c-.41-.22-.79-.46-1.19-.68v-2.55c.95,1.06,1.25,2.06,1.19,3.23Z" fill="#f3eace" stroke-width="0"/>
      <path d="m326.89,393.92c1.33,4.96,2.52,9.35,3.66,13.77.52,2.01-.46,3.2-2.44,3.44-10.95,1.25-21.85,2.74-32.83,3.55-17.7,1.33-35.43,1.65-53.16.81-12.77-.6-25.51-1.6-38.17-3.33-1.55-.22-2.6-.22-3.77,1.41-3.82,5.26-13.31,5.53-17.81.81-2.14-2.28-2.09-4.58-.11-6.89.76-.87,1.65-2.09,2.87-1.65,1.44.52.3,1.84.24,2.76-.19,3.17,1.87,3.98,4.31,4.5,2.82.6,4.91-.68,5.18-3.33.54-4.85,3.31-6.59,7.78-6.67.81,1.19-.19,2.39-.3,3.69,3.58,1.14,7.26,1.03,10.82,1.65.98.16,1.76-.03,2.3-1.08,1.76-3.36,1.79-3.33,5.64-4.45.05.46.11.89.19,1.3.38,1.63-1.44,4.07-.27,4.53,2.39.98,5.26.92,7.92,1.06,1.49.08,1.33-1.38,1.44-2.36.49-4.07,1-8.13,1.41-12.23.14-1.38.41-2.6,1.68-3.25,1.14-.57,2.44-1.68,3.55-1,1.03.65.22,2.14.08,3.28-.35,3.36-.68,6.75-1,10.11,7.59-1.22,15.04.27,22.47-.05,2.11-.08,3.17,1.52,2.85,3.58-.49,3.09,1.11,3.61,3.61,3.28,2.3-.3,4.88.84,6.32-2.6.89-2.14,3.52-1.46,4.53,1,.41,1,1.03,1.11,1.9,1.06.92-.08,1.14-.57,1.08-1.41-.33-3.66,2.71-3.42,4.99-4.36.14,1.52.24,2.79.33,4.09.08,1.11.54,1.76,1.79,1.57,1.19-.16,1.11-.95,1-1.82-.08-.57-.14-1.17-.08-1.76.19-2.55,2.44-3.36,4.17-3.55,1.6-.16,1.46,2.03,1.36,3.23-.27,3.06,1.22,3.66,3.77,3.23.35-.05.7-.08,1.06-.08,3.01-.08,4.93-.76,3.82-4.61-.89-3.01-.92-6.23-1.52-9.35-.65-3.36.57-5.42,4.23-6.48.95,5.42,2.11,10.76,2.76,16.16.33,2.74,1.49,3.33,3.88,2.98,3.82-.52,7.67-.95,11.49-1.44.7-.08,1.52-.08,1.55-1.03,0-1.27-1.03-1.06-1.79-1.06-1.52,0-3.04.16-4.55.11-2.6-.05-3.85-1.79-3.98-4.07-.14-2.2,1.49-3.28,3.47-3.8,3.36-.87,7.08-.41,10.3-3.23h0v-.03Z" fill="#be942e" stroke-width="0"/>
      <path d="m211.27,415.47c1.36.41,2.95.73,2.9,2.52-.05,1.92-1.57,2.47-3.25,2.39-1.49-.08-2.98-.76-2.95-2.39.03-1.84,1.71-2.28,3.31-2.52Z" fill="#c29930" stroke-width="0"/>
      <path d="m219.54,421.14c-2.03.05-3.55-.54-3.63-2.33-.05-1.6,1.46-2.41,2.9-2.41,1.52,0,3.14.49,3.23,2.44.05,1.82-1.33,2.22-2.49,2.33h0v-.03Z" fill="#c39a33" stroke-width="0"/>
      <path d="m319.3,392c-1.33-.27-2.79-.57-2.87-2.39-.08-1.6.98-2.28,2.44-2.36,1.76-.11,3.09.62,3.17,2.44.08,1.6-1.41,1.92-2.74,2.3Z" fill="#c29a32" stroke-width="0"/>
      <path d="m194.47,397.04c.95.14,2.22.79,1.98,2.33-.27,1.82-1.82,2.2-3.5,2.06-1.49-.14-2.66-1-2.44-2.36.24-1.76,1.82-2.25,3.96-2.01h0v-.03Z" fill="#c19830" stroke-width="0"/>
      <path d="m288.18,262.23c-3.47,7.4-8.54,13.69-13.74,19.9-5.07,6.05-10.76,11.49-16.92,16.45-1.14.92-1.95,1.38-3.25.22-2.79-2.49-5.83-4.72-8.32-7.56-.19-.81.35-1.06.95-1.25,2.9.05,4.45,2.44,6.42,3.96,1.82,1.41,3.17,1.49,4.96,0,3.14-2.66,6.07-5.53,9.05-8.35,2.33-2.2,3.2-4.66,3.2-7.81-.08-17.27,0-34.56,0-51.83,0-2.36,0-4.72.89-6.94.38-.52.84-.87,1.52-.65,1.92,1.46,1.38,3.63,1.41,5.53.05,16.32,0,32.64.05,48.96,0,1.27-.19,2.58.27,4.2,3.25-3.44,5.58-7.26,8.16-10.92,1.17-1.65,1.82-3.96,4.31-4.34.41,0,.79.14,1.08.41h-.03l-.03.03Z" fill="#c39b32" stroke-width="0"/>
      <path d="m288.18,262.23c-.3-.03-.6-.05-.89-.08-1.3-2.14.11-3.88,1-5.56,5.18-9.7,8.84-19.98,11.39-30.63,1.73-7.18,2.79-14.5,3.39-21.88-.11-1.98,2.39-4.64-1.49-5.61-1.73-.14-3.39.52-5.12.41-1.11-.16-2.11-.52-2.68-1.57,1-1.87,2.55-.92,3.96-.79,8.67.22,8.81.22,8.11,8.81-1.44,17.89-6.02,34.94-14.12,50.99-1.03,2.06-2.36,3.96-3.52,5.94h0v-.03Z" fill="#bc902e" stroke-width="0"/>
      <path d="m236.65,281.4c-10.3-11.68-17.78-24.99-22.99-39.6.27-.27.6-.38.98-.33,1.68.52,2.2,2.03,2.79,3.42,4.91,11.63,11.47,22.28,19.11,32.29.98,1.27,2.25,2.52,1.08,4.36-.35.19-.68.14-.98-.11h0v-.03Z" fill="#c19c33" stroke-width="0"/>
      <path d="m205.85,204.36c-.05-2.36-.92-5.15.08-6.91,1.14-2.01,4.23-.57,6.45-.92,7.97-1.27,15.89-2.66,23.56-5.29.65-.22,1.38-.24,2.06-.35.84-.35,1.57-.43,1.82.73-.73,2.3-2.87,2.6-4.74,3.12-8.4,2.36-16.83,4.72-25.67,4.58-.27.16-.54.35-.79.54-1.57,1.14-.6,3.31-1.87,4.55-.3.19-.6.16-.89,0h0v-.05Z" fill="#bd9130" stroke-width="0"/>
      <path d="m205.85,204.36h.6c.41-.22.76-.19,1.14.08,1.82,3.04,1.52,6.48,2.01,9.79,1.11,7.29,2.93,14.39,4.88,21.5.54,1.95,1.63,3.98,0,5.96-.27,0-.54,0-.79.05-4.5-12.09-7.16-24.53-7.81-37.44v.05h-.03Z" fill="#bf9932" stroke-width="0"/>
      <path d="m261.61,185.95c7.64,3.82,15.83,6.13,23.99,8.46-.24.84-.81,1.33-1.55,1.71-3.33,1.03-6.1-1.11-9.14-1.73-4.09-.84-8.08-2.39-11.79-4.36-1.36-.73-2.71-1.49-2.74-3.31.19-.6.49-1.08,1.25-.76h-.03Z" fill="#c49732" stroke-width="0"/>
      <path d="m284.03,195.06c.52-.22,1.03-.43,1.57-.65,4.04.7,8.08,1.41,12.12,2.11-1.27.22-2.66-.16-3.85.62-3.01,2.01-7.4,1.08-9.84-2.06h0v-.03Z" fill="#c19832" stroke-width="0"/>
      <path d="m261.61,185.95c-.3.27-.57.54-.87.81-2.63,1.3-4.72-1.17-7.21-1.03-.43-.3-.7-.68-.76-1.22,3.77-4.53,6.05,0,8.81,1.46h0l.03-.03Z" fill="#c79b34" stroke-width="0"/>
      <path d="m239.58,191.45c-.52-.19-1.06-.38-1.57-.57,3.06-1.17,6.13-2.36,9.22-3.52.79-.38,1,.11,1.14.73-1.92,3.36-5.53,4.74-8.78,3.36Z" fill="#c49834" stroke-width="0"/>
      <path d="m236.65,281.4c.38-.05.73-.11,1.11-.16.52-.24,1.06-.22,1.6-.08,2.11,1.46,4.26,2.9,4.23,5.91-.24.52-.54.92-1.22.65-2.28-1.79-3.96-4.09-5.72-6.32Z" fill="#c39d34" stroke-width="0"/>
      <path d="m248.06,187.98c-.3-.22-.57-.43-.87-.65,1.87-.95,3.74-1.9,5.58-2.85.3.19.6.41.89.6-1.27,3.17-2.39,3.77-5.64,2.93h0l.03-.03Z" fill="#c79a33" stroke-width="0"/>
      <path d="m242.37,287.71c.27-.27.54-.57.79-.84,2.63-.24,3.85.98,3.61,3.61-.27.27-.54.52-.84.79-1.38-.98-2.63-2.11-3.58-3.55h.03Z" fill="#c8a332" stroke-width="0"/>
      <path d="m314.85,376.08c-.95.14-1.57.27-1.79-.49-.14-.54.24-.81.7-1.03,2.98-1.46,6.15-2.14,9.38-2.74.65-.14,1.25.14,1.25.84,0,.33-.46.87-.81.98-3.01.89-6.05,1.71-8.73,2.47h0v-.03Z" fill="#c49d36" stroke-width="0"/>
      <path d="m339.68,368.22c-3.9,1.84-7.16,2.98-11.14,3.74,2.39-3.55,6.42-4.93,11.14-3.74Z" fill="#c29a33" stroke-width="0"/>
      <path d="m188.78,371.85c2.95.6,5.69,1.17,8.27,2.33.62.3,1.9.38,1.41,1.57-.33.84-1.22.43-1.87.24-2.71-.7-5.39-1.46-8.11-2.22-.68-.19-1.46-.41-1.27-1.3.22-.98,1.06-.68,1.55-.62,0,0,.03,0,.03,0Z" fill="#c49c36" stroke-width="0"/>
      <path d="m183.16,371.91c-4.15-.73-7.4-1.84-10.98-3.63,4.39-1.3,8.35,0,10.98,3.63Z" fill="#c29a33" stroke-width="0"/>
      <path d="m218.54,379.36c-.6,0-1.19.05-1.76,0-1.19-.16-3.23.65-3.39-.81-.19-1.63,1.9-1.71,3.2-1.87,2.3-.3,4.66-.54,6.91.46.62.27,1.38.62,1.08,1.52-.22.62-.87.7-1.46.7,0,0-4.58,0-4.58,0Z" fill="#c59e3a" stroke-width="0"/>
      <path d="m236.7,377.47c1.46,0,2.2-.08,2.87.03.38.08.7.52,1.03.79-.3.33-.54.92-.87.95-3.14.43-6.29.76-9.43,1.08-.41.05-.98,0-1.08-.6-.16-.79.46-1.03.98-1.22,2.33-.87,4.83-.89,6.51-1.06h0v.03Z" fill="#c59e38" stroke-width="0"/>
      <path d="m292.87,379.34h-4.23c-.7,0-1.52-.05-1.65-.92-.11-.65.46-1.03,1.03-1.25,3.23-1.19,6.42-1,9.57.24.35.14.81.7.79,1-.05.62-.65.89-1.27.92,0,0-4.23,0-4.23,0Z" fill="#c59e3a" stroke-width="0"/>
      <path d="m275.28,377.44c1.46.22,3.55.43,5.58.87.68.14,1.82.38,1.55,1.49-.22.87-1.11.57-1.76.52-2.52-.24-5.07-.57-7.59-.84-.84-.08-1.98-.16-1.95-1.03.05-1.25,1.3-.98,2.2-1h2.01s-.03,0-.03,0Z" fill="#c59e38" stroke-width="0"/>
      <path d="m245.32,410.48c-2.14,0-4.83.05-7.51-.03-.92,0-2.3.41-2.33-1.3,0-1.6,1.17-1.46,2.22-1.44,5.37.22,10.73.46,16.1.68,1.03.05,1.95.41,1.9,1.57-.05,1.46-1.3,1.03-2.17.98-2.58-.11-5.12-.3-8.27-.49h.05v.03Z" fill="#fdfbf6" stroke-width="0"/>
      <path d="m318.51,401.08c1.17-1.55,2.33-1.25,3.93-.62-1.3,1.38-2.47,1.06-3.93.62Z" fill="#fbf8f1" stroke-width="0"/>
      <path d="m246.76,290.48c-1.19-1.19-2.41-2.41-3.61-3.61-1.41-1.63-2.82-3.25-4.23-4.88-1.03-1.9-1.6-3.9-1.63-6.05-.05-17.95-.08-35.86,0-53.81,0-.81.08-1.63.27-2.44,1.27-2.68,3.2-1.82,4.99-.76,3.33,1.98,6.59,4.07,9.76,6.26,2.47,1.71,4.53,1.79,6.99.08,2.68-1.87,5.42-3.71,8.24-5.39,1.41-.84,2.82-1.79,4.55-.76,0,20.44.05,40.88.08,61.32,0,1.63-.52,2.87-1.65,4.07-4.07,4.23-8.38,8.21-12.77,12.09-1.6,1.41-2.66,1.27-4.12-.16-2.17-2.11-4.58-4.01-6.89-5.99h0v.03Z" fill="#fff" stroke-width="0"/>
      <path d="m272.13,219.13c-4.66,2.9-9.38,5.69-13.93,8.73-1.71,1.14-2.9,1.22-4.64,0-4.74-3.2-9.65-6.18-14.48-9.24-1.52.68-2.74,0-3.93-.81-8.11-5.42-16.43-10.44-24.48-15.91-1.38-.95-3.17-1.71-2.77-3.96,10.95-.3,21.42-2.9,31.69-6.51,2.95-.87,5.77-2.01,8.48-3.44,1.87-.98,3.77-1.95,5.64-2.93,3.09-2.58,4.64,1.33,7.05,1.68,7.1,4.61,15.21,6.42,23.29,8.32,3.28.7,6.42,2.06,9.84,2.06.95.08,1.9.16,2.85.22,1.76.62,3.61.14,5.39.3.54,0,1.08,0,1.6.14.76,1.95-.79,2.79-1.95,3.58-8.4,5.72-17.08,11.01-25.56,16.62-1.11.73-2.36,1-3.69.7-.19.11-.3.24-.41.43v.03Z" fill="#ed3039" stroke-width="0"/>
      <path d="m272.54,218.7c9.41-6.13,18.79-12.25,28.19-18.41,1.06-.7,2.03-1.49,3.06-2.25,2.33,1.55.7,3.71.87,5.58-1.3,20.85-7.24,40.31-17.35,58.53-4.31,6.67-8.54,13.42-14.77,19.98,0,0,0-63.43,0-63.43Z" fill="#020202" stroke-width="0"/>
      <path d="m304.63,203.62c-.57-1.82.98-3.96-.87-5.58-.46-.05-.95-.08-1.41-.14l-.33-.14.14-.33c3.33.3,3.8,1.44,2.47,6.18Z" fill="#b9872c" stroke-width="0"/>
      <path d="m302.17,197.44s.14.3.19.46c-1.9,0-3.85.49-5.64-.54,1.82,0,3.63.05,5.42.08h.03Z" fill="#a54824" stroke-width="0"/>
      <path d="m207.89,197.96c8.59,6.45,17.95,11.74,26.84,17.73,1.46.98,2.9,1.98,4.34,2.98,0,21.12-.08,42.21-.11,63.32-.41-.24-.79-.49-1.19-.76-7.62-9.46-14.29-19.52-19.33-30.58-1.36-2.95-2.63-5.96-3.96-8.92-2.85-10.36-5.96-20.63-6.89-31.39-.16-1.98-.35-3.96-.52-5.94-.33-2.14-.49-4.26.08-6.37.24,0,.49,0,.76-.05h0l-.03-.03Z" fill="#0a9648" stroke-width="0"/>
      <path d="m207.13,198.01c-.03,2.11-.05,4.26-.08,6.37h-.6c.35-2.09-.87-4.36.68-6.34v-.03Z" fill="#ae9431" stroke-width="0"/>
    </g>
  </g>
</svg>