<?xml version="1.0" encoding="UTF-8"?>
<svg id="Layer_2" data-name="Layer 2" xmlns="http://www.w3.org/2000/svg" viewBox="0 0 93.82 127.66">
  <g id="Layer_2-2" data-name="Layer 2">
    <g id="Layer_1-2" data-name="Layer 1-2">
      <g>
        <path d="m0,108.08v-2.08c.23-.25.09-.55.13-.83v-.87c-.02-.22.06-.46-.13-.65v-1.56c.29-1.41.21-2.84.22-4.25.06-5.55.18-11.1.34-16.64.14-4.8.25-9.61.63-14.4.17-2.16.18-4.33.24-6.49.09-3.34.26-6.67.38-10,.24-6.32.56-12.63.79-18.95.06-1.62.21-3.27.71-4.87,1.23-3.95,4.74-5.85,8.83-5.34,3.69.46,7.03,1.88,10.18,3.73,3.43,2.01,7.07,3.24,11.02,3.6.79.07,1.35-.17,1.77-.81,3.55-5.23,5.63-10.92,5.4-17.33-.05-1.36-.55-2.53-1.59-3.44-.77-.68-1.6-.92-2.64-.57-1.65.56-2.48-.1-2.49-1.84,0-.89.22-1.72.57-2.52.38-.89,1.04-1.45,2.05-1.59,1.25-.18,2.52-.2,3.76-.07,1.3.13,2.56.17,3.8-.31h1.82c1.1.21,2.22.26,3.33.39,3.37.39,5.45,2.17,6.3,5.46.44,1.69.62,3.4.58,5.15-.09,4.08.02,8.15,1.04,12.14.39,1.51.85,3,1.52,4.42.36.77.93,1.01,1.79.93,4-.38,7.66-1.65,11.13-3.67,3.04-1.78,6.26-3.1,9.81-3.62,5.15-.76,9.18,2.36,9.56,7.59.3,4.24.38,8.48.57,12.72.29,6.4.56,12.81.8,19.22.15,3.89.3,7.79.51,11.68.36,6.79.6,13.59.79,20.38.08,2.77.14,5.55.14,8.32,0,2.04.2,4.07.15,6.11-.01.47.1,1-.44,1.26-.56.26-1-.05-1.41-.4-2.22-1.94-4.35-3.98-6.5-5.98-5.04-4.7-10.08-9.39-15.14-14.06-.09-.09-.19-.18-.41-.12,1.2,4.15,2.3,8.34,3.5,12.49.1.33.2.66.29,1,.46,1.74.54,1.78,2.32,1.34,3.71-.92,7.28,1.82,7.28,5.65,0,.82.18,1.42.93,1.82.54.29.94.74,1.33,1.22.57.71,1.23,1.3,2.1,1.69.95.43,1.15,1.39.42,2.14-.61.63-.91,1.35-1.16,2.13-.08.25-.16.51-.32.71-1.03,1.29-1.74,2.71-2.23,4.31-.36,1.18-1.5,1.76-2.66,2.1-4.38,1.26-8.87,1.94-13.4,2.4-9.59.98-19.21.72-28.83.69-6.84-.02-13.67-.33-20.43-1.49-2.44-.42-4.85-.94-7.22-1.64-1.58-.47-2.74-1.46-3.05-3.21-.14-.78-.44-1.46-1.07-2.02-.59-.52-.9-1.28-1.13-2.02-.23-.71-.5-1.35-1.03-1.91-.67-.73-.57-1.72.29-2.08.98-.42,1.6-1.14,2.25-1.89.85-.96,2.1-3.29,2.39-4.57.28-1.25.97-2.31,2.06-2.89,1.72-.91,3.53-1.72,5.57-1.01.83.29,1.42.19,1.69-.77,1.28-4.49,2.53-8.99,3.8-13.61-1.84,1.18-3.21,2.71-4.69,4.07-4.24,3.91-8.57,7.71-12.79,11.63-1.42,1.32-2.79,2.73-4.36,3.89-.58.43-1.15.9-1.74.02l-.02-.03Z" fill="#be942e" stroke-width="0"/>
        <path d="m.22,104.16v1.03c-.06.19-.13.2-.21.02v-1.04c.07-.18.14-.19.22,0h-.01Z" fill="#dcc48f" stroke-width="0"/>
        <path d="m0,105.21c.07-.01.14-.02.21-.02.04.3.07.59-.21.8v-.78Z" fill="#d3b574" stroke-width="0"/>
        <path d="m.22,104.16h-.22v-.52c.28.08.25.3.22.51H.22Z" fill="#e4d1a9" stroke-width="0"/>
        <path d="m70.31,39.05c-3.14,1.81-6.23,1.18-9.25.74-3.33-.49-6.6-1.37-9.69-2.75-.63-.28-1.24-.6-1.87-.91-.98-.48-1.7-1.82-2.54-1.8-.77.02-1.56,1.24-2.51,1.68-5.43,2.49-11.04,4.28-17.11,4.1-.65-.02-1.29.35-1.97-.08-.57-.36-1.18-.72-1.92-.79-.41,3.08-.35,6.17-.49,9.24-.52,11.27-.94,22.55-1.4,33.82-.07,1.78-.2,3.55-.23,5.33-.02,1.35-1.25,1.61-2.07,2.65,0-1.17-.03-2.05,0-2.94.49-11.79.99-23.59,1.48-35.38.18-4.34.35-8.67.53-13.01.02-.48.06-.93-.4-1.29-1.08-.85-2.12-1.75-3.35-2.76-.1,1.87-.21,3.53-.28,5.19-.29,6.68-.57,13.35-.87,20.03-.39,8.76-.81,17.51-1.21,26.27-.09,2.04-.34,4.08-.24,6.11.09,1.72-.86,2.56-1.84,3.3,0-2.85-.09-5.78.02-8.7.26-7.29.61-14.57.93-21.85.31-7.2.64-14.39.95-21.59.14-3.21.24-6.42.38-9.63.02-.55-.06-.99-.52-1.37-1.36-1.13-2.68-2.3-4.23-3.65-.16,3.29-.32,6.33-.46,9.38-.41,9.06-.82,18.12-1.23,27.18-.29,6.63-.57,13.27-.87,19.9-.22,4.86-.47,9.71-.65,14.56-.04,1-.48,1.59-1.33,2.03,0-1.96-.06-3.88.01-5.8.28-7.2.62-14.39.93-21.59.32-7.5.65-15,.95-22.5.32-7.8.61-15.61.95-23.41.04-.97-.27-1-1.04-.68-1.27.53-2.39,1.32-3.65,1.98-.06-3.76,1.79-6.67,4.71-7.32,1.85-.41,3.7-.17,5.52.32,2.61.7,5.05,1.81,7.35,3.2,3.66,2.22,7.61,3.47,11.89,3.69.11,0,.22.06.46.13-.47.63-.88,1.2-1.4,1.9,2.45.25,4.37-.83,6.48-1.77-.27,1.19-.5,2.22-.76,3.41,1.85-.7,3.34-1.68,4.73-2.82.6-.49.97-.64,1.55.04.61.71,1.21,1.87,2.02,1.86.63,0,1.28-1.14,1.87-1.82.51-.59.9-.72,1.57-.15,1,.84,2.2,1.36,3.47,1.69,1.67.43,1.92.25,1.84-1.38,1.06.18,2.1.38,3.16.54.48.07,1.06.49,1.41-.07.47-.73-.55-.85-.67-1.43,1.39-.2,2.82-.39,4.24-.63,2.85-.48,5.45-1.6,7.94-3.05,3.11-1.81,6.33-3.34,9.98-3.78,5.08-.62,7.66,2.33,7.87,7.39-1.24-.65-2.44-1.28-3.64-1.9-.77-.4-1.13-.38-1.08.71.56,12.48,1.08,24.97,1.6,37.46.38,9.28.74,18.56,1.12,27.84.1,2.59.23,5.19.36,7.94-1.14-.58-1.55-1.34-1.59-2.44-.26-6.63-.57-13.27-.87-19.9-.31-6.89-.63-13.78-.94-20.68-.3-6.68-.59-13.35-.88-20.03-.14-3.25-.3-6.49-.46-10-1.61,1.4-3.03,2.64-4.47,3.87-.4.34-.31.78-.29,1.2.29,7.28.57,14.57.88,21.85.3,7.11.63,14.22.95,21.33.24,5.42.47,10.84.7,16.26.03.68,0,1.37,0,2.15-1.26-.85-2.08-1.73-2.14-3.4-.21-6.81-.59-13.61-.9-20.42-.32-6.98-.64-13.96-.95-20.94-.23-5.24-.45-10.49-.69-16.05-1.32,1.11-2.49,2.08-3.64,3.09-.33.29-.15.74-.13,1.12.6,14.96,1.2,29.92,1.8,44.88.07,1.85.32,3.69.17,5.73-1.21-.92-2.04-1.67-2.1-3.34-.39-11.19-.94-22.37-1.42-33.56-.2-4.51-.36-9.01-.55-13.71l.02-.02Z" fill="#fff" stroke-width="0"/>
        <path d="m65.03,113.36c.09.34-.18.88.37.97.62.11.44-.51.58-.82.78-1.7,1.56-3.18,3.83-3.42,2.48-.27,4.91-.97,7.35-1.55,2.41-.57,3.51.04,4,2.45.13.64.43.86,1.04.92.87.09,3.03,2.01,3.17,2.76.17.86-.89,3.04-1.81,3.52-.65.34-.79.8-.8,1.47-.03,2-.42,2.45-2.38,2.95-5.13,1.31-10.35,1.99-15.62,2.43-7.4.62-14.81.89-22.22.7-9.01-.23-18.01-.65-26.86-2.56-.89-.19-1.76-.42-2.64-.65-1.77-.47-2.12-.84-2.22-2.68-.05-.86-.22-1.45-1.09-1.82-.89-.38-.93-1.37-1.26-2.16-.39-.94-.13-1.58.55-2.25.78-.77,1.28-1.87,2.68-1.75.54.05.71-.51.79-1.02.31-1.88,1.68-2.91,3.48-2.45,3.14.8,6.34,1.36,9.49,2.1,1.26.3,1.55,1.81,2.19,2.84.21.34-.03,1.01.59,1.01.57,0,.35-.59.48-.92.47-1.16,1.88-2.06,3.2-1.97,3.03.21,6.04.3,9.09.12,1.38-.08,2.47,1.29,3.2,2.47.53.85.75.67,1.14.07.4-.62.66-1.31.79-2.04.07-.38.15-.76.7-.77.55-.01.65.36.73.74.15.78.42,1.5.86,2.16.32.49.58.62,1.04,0,1.14-1.53,2.25-2.9,4.64-2.59,3,.39,6.06.12,9.06-.38,1.03.36,1.8.93,1.88,2.13h-.02Z" fill="#fff" stroke-width="0"/>
        <path d="m58.64,30.67c-3.3-.29-4.11-.9-5.01-3.76-1.03-3.28-1.4-6.68-1.8-10.08-.04-.35.22-1.03-.52-.92-.6.08-.31.65-.28.96.46,4.56.83,9.15,3.11,13.29.24.44.49.9.47,1.54-1.71-.23-3.11-1.01-4.4-2.03-.4-.32-.47-.78-.53-1.27-.49-3.97-.48-7.96-.51-11.95,0-.38.36-1.12-.44-1.09-.76.02-.45.73-.43,1.13.17,4.16-.07,8.33.59,12.46.06.36-1.72,2.58-2.08,2.64-.26.04-.35-.19-.5-.32-1.14-.98-1.67-1.89-1.09-3.63,1.29-3.87,1.47-7.98,1.81-12.04.03-.33.16-.74-.4-.75-.63-.01-.5.49-.52.84-.15,3.08-.54,6.12-1.07,9.16-.07.43-.21.84-.25,1.27-.3,3.06-2.37,4.62-4.94,5.89.03-.96.13-1.87.59-2.57,2.36-3.62,3.03-7.77,3.85-11.88.1-.51.2-1.02.25-1.54.03-.33.32-.85-.34-.9-.53-.04-.41.44-.47.75-.49,2.72-.99,5.44-1.8,8.1-.21.7-.53,1.37-.71,2.08-.86,3.29-3.57,4.14-6.61,5.08.9-1.38,1.65-2.5,2.38-3.64,3.46-5.43,5.38-11.3,4.93-17.81-.06-.88.29-1.18,1.12-1.1.43.04.86,0,1.48,0-1.38-2.3-2.98-4.23-5.52-5.19-1.34-.5-2.35-.09-3.15,1.04-.14.2-.18.51-.49.56-.42-2.85,1.1-3.25,3.53-3.13.78.04,1.46.46,2.1.94,1.18.87,2.59,1.43,3.75,2.21,1.46.99,1.98.53,3.19-.29,1.35-.92,3.19-.92,4.9-.57.69.14.87.68,1.03,1.21.54,1.7.84,3.45.82,5.24-.04,4.68-.07,9.36,1.28,13.92.63,2.12,1.36,4.18,2.71,6.16h-.03Z" fill="#fff" stroke-width="0"/>
        <path d="m27.32,43.61c0-.82-.29-1.83.08-2.42.41-.64,1.5-.16,2.29-.24,5.38-.59,10.58-1.84,15.34-4.43,1.48-.81,2.34-.95,3.84.05,3.19,2.14,6.96,2.98,10.69,3.76,2.04.43,4.09.77,6.18.62.96-.07.66.6.67,1.03.04,4.54-.67,8.98-1.92,13.33-2.94,10.21-8.55,18.67-16.75,25.42-.64.53-1.07.61-1.76.05-9.63-7.95-15.63-18.03-17.91-30.32-.42-2.26-.74-4.53-.76-6.84h.01Z" fill="#fffefd" stroke-width="0"/>
        <path d="m31.63,89.57c-.5-1.75-.94-3.24-1.34-4.74-.24-.89-.59-.94-1.22-.32-1.23,1.22-2.49,2.4-3.93,3.79,1.02-3.63,1.98-7.06,3.02-10.76.38.88.71,1.51.93,2.17.35,1.03.8.93,1.46.27,1.22-1.22,2.49-2.4,3.93-3.79.24,2.2.44,4.15.66,6.1.05.49-.13,1.17.51,1.32.57.14.72-.53,1-.87.66-.8,1.27-1.63,2.04-2.62.74,2.5,1.42,4.83,2.12,7.16.09.29-.03.51-.18.72-1.07,1.62-2.13,3.24-3.37,5.12-.48-2.57-.91-4.88-1.33-7.18-.07-.38,0-.87-.44-1-.54-.16-.71.4-.95.72-.94,1.23-1.85,2.48-2.9,3.91h0Z" fill="#fff" stroke-width="0"/>
        <path d="m54.99,80.12c.82,1.07,1.53,1.99,2.25,2.9.23.29.4.77.88.59.43-.16.37-.64.41-1.02.21-2.02.41-4.05.62-6.18,1.06.46,1.66,1.39,2.45,2.07.52.45,1.02.94,1.49,1.45.69.74,1.17.81,1.53-.29.21-.65.54-1.26.9-2.1,1.03,3.66,2.01,7.13,2.98,10.6-.07.05-.15.09-.22.14-1.08-1.11-2.16-2.22-3.24-3.33-1.24-1.26-1.33-1.23-1.79.42-.37,1.31-.75,2.62-1.19,4.18-1.04-1.41-1.95-2.65-2.88-3.87-.25-.32-.42-.89-.94-.74-.51.14-.39.7-.47,1.11-.42,2.27-.85,4.54-1.33,7.07-1.22-1.85-2.28-3.47-3.35-5.08-.17-.26-.27-.52-.17-.85.69-2.3,1.36-4.6,2.09-7.07h-.02Z" fill="#fff" stroke-width="0"/>
        <path d="m29.6,85.66c.42,1.46.89,3.03,1.32,4.61.24.9.64.84,1.12.21.97-1.27,1.91-2.56,3.04-4.08.38,1.95.63,3.71,1.08,5.41.42,1.64.18,3.01-.9,4.33-.76.93-1.33,2.01-2.11,3.23-.59-1.77-1.12-3.34-1.64-4.91-.12-.37-.17-.86-.63-.87-.36-.01-.51.42-.69.71-.94,1.54-1.88,3.08-2.98,4.88-.83-3.03-1.57-5.8-2.34-8.55-.11-.37.03-.58.26-.79,1.48-1.39,2.97-2.77,4.49-4.18h-.02Z" fill="#fff" stroke-width="0"/>
        <path d="m60.54,99.38c-1.13-1.77-2.11-3.3-3.1-4.82-.15-.23-.24-.47-.2-.73.42-2.41.85-4.81,1.32-7.49,1.1,1.49,2.01,2.74,2.94,3.97.2.26.36.64.79.59.46-.06.41-.5.5-.81.45-1.52.88-3.05,1.29-4.48,1.54,1.45,3.06,2.91,4.6,4.35.29.27.15.53.07.83-.74,2.7-1.46,5.4-2.26,8.38-1.07-1.73-2.01-3.26-2.96-4.79-.2-.32-.32-.82-.77-.78s-.48.54-.6.9c-.51,1.56-1.04,3.11-1.63,4.88h.01Z" fill="#fff" stroke-width="0"/>
        <path d="m56.93,95.4c1.12,1.74,2.07,3.22,3.03,4.7.18.28.3.68.72.67.55,0,.51-.53.63-.86.52-1.51,1.01-3.03,1.63-4.92,1.15,1.98,2.23,3.7,3.14,5.5.27.53-.26,1.23-.44,1.85-.28.95-.56,1.9-.84,2.86-.1.34-.19.68-.61.75-.45.08-.57-.29-.74-.58-.55-.93-1.1-1.86-1.66-2.79-.42-.7-.8-.56-1.05.12-.31.85-.66,1.7-.84,2.59-.2,1.02-.74,1.27-1.72,1.25-1.86-.04-1.7-.04-2.28-1.83-.89-2.72.31-5.18.65-7.75.05-.42.19-.82.37-1.57h0Z" fill="#fff" stroke-width="0"/>
        <path d="m36.76,95.38c.53,2.44,1.1,4.52,1.4,6.63.2,1.41-.53,2.78-.74,4.18-.06.4-.43.36-.73.36-.48,0-.96-.08-1.43-.02-.85.1-1.24-.28-1.44-1.08-.2-.84-.51-1.65-.79-2.46-.11-.32-.15-.76-.53-.82-.48-.08-.6.41-.79.73-.52.85-1.02,1.71-1.52,2.57-.15.26-.28.55-.67.5-.36-.04-.51-.3-.6-.6-.44-1.44-.88-2.89-1.3-4.34-.1-.34-.09-.68.11-1,.96-1.57,1.92-3.15,3.02-4.96.55,1.61,1,2.98,1.48,4.33.18.5.08,1.29.76,1.35.66.06.77-.73,1.07-1.17.88-1.28,1.69-2.6,2.71-4.2h0Z" fill="#fff" stroke-width="0"/>
        <path d="m48.88,90.4c.58,4.16,1.15,8.32,1.73,12.49.1.73,1.93,2.6,2.57,2.68.3.04.44-.21.64-.37.36-.29.58-.75,1.06-.89.07.08.15.14.17.21.62,2.12.62,2.1-1.57,2.01-2.45-.1-4.46.73-5.9,2.82-.38.55-1.1.56-1.5-.02-1.48-2.13-3.5-2.96-6.03-2.81-2.11.13-2.16.02-1.25-2.22h.12c.67.26.94,1.56,1.79,1.06,1.09-.64,2.3-1.24,2.48-2.88.45-4.05,1.07-8.07,1.62-12.11.63.07.27.49.27.77-.21,3.89-.43,7.78-.64,11.67-.04.68,1.65,3.48,2.24,3.78.36.18.45-.12.6-.3,1.28-1.43,2.26-2.84,1.98-5.04-.43-3.34-.44-6.73-.63-10.1,0-.29-.36-.7.26-.78v.03Z" fill="#fffefe" stroke-width="0"/>
        <path d="m61.84,64.52c1.08,3.8,2.17,7.43,3.12,11.1.32,1.24-.66,2.27-1.07,3.38-.13.36-.44.03-.61-.13-1.2-1.13-2.39-2.27-3.6-3.39-.38-.35-.37-.75-.33-1.18.19-1.77.41-3.53.56-5.3.14-1.67,1.05-2.96,1.92-4.47h.01Z" fill="#fffffe" stroke-width="0"/>
        <path d="m31.78,64.67c2.02,2.19,1.85,4.92,2.35,7.48.46,2.3-.21,3.91-2.07,5.15-.04.02-.06.07-.09.09-.77.5-1.13,1.63-2.16,1.63-.47,0-1.16-3.15-.94-3.95.96-3.45,1.93-6.9,2.91-10.4Z" fill="#fffffe" stroke-width="0"/>
        <path d="m67.72,82.47c-.3-1.13-.5-2.29-.9-3.38-.88-2.4-1.09-4.88-1.19-7.39-.17-4.38-.25-8.76-.56-13.12-.17-2.38.73-4.5,1.08-6.75.1-.17.15-.42.44-.25.46,10.05.92,20.11,1.38,30.16-.02.27.4.68-.25.73Z" fill="#fffefe" stroke-width="0"/>
        <path d="m27.55,52.08c1.59,4.02.86,8.19.79,12.31-.04,2.51-.29,5.02-.26,7.53.03,3.61-1.2,6.95-2.06,10.36-.5.04-.37-.27-.29-.54.46-9.97.93-19.94,1.39-29.91.23-.07.36.05.44.25h-.01Z" fill="#fffefe" stroke-width="0"/>
        <path d="m69.61,92.1c1.08,3.81,2.16,7.62,3.24,11.43.1.36.09.78-.36.81-.75.04-1.57.91-2.26,0-.98-1.27-1.85-2.62-2.81-3.9-.29-.39-.15-.71-.05-1.09.66-2.41,1.3-4.83,1.95-7.25h.29Z" fill="#fffffe" stroke-width="0"/>
        <path d="m24.34,92.1c.7,2.55,1.41,5.1,2.09,7.66.11.42-2.93,4.86-3.37,4.92-.74.09-1.5-.1-2.1-.5-.47-.32-.03-.87.09-1.3.95-3.41,1.91-6.82,2.87-10.23.05-.19,0-.45.42-.55Z" fill="#fffffe" stroke-width="0"/>
        <path d="m63.43,107c3.44-.53,6.86-1.13,10.21-2.06,1-.27,2-.52,2.97-.86.81-.29,1.2.05,1.51.74.62,1.4.16,2.56-1.28,2.9-2.81.65-5.64,1.21-8.45,1.85-.65.15-.79-.14-.97-.66-.6-1.74-1.72-2.26-3.42-1.65-.2-.06-.47.04-.57-.25h0Z" fill="#fffefc" stroke-width="0"/>
        <path d="m29.68,107.26c-1.68-.62-2.82-.1-3.42,1.64-.18.51-.29.83-.96.68-2.94-.65-5.92-1.14-8.82-1.98-1.01-.29-1.43-1.34-1.04-2.54.34-1.04.99-1.23,2.01-.88,3.59,1.23,7.34,1.86,11.05,2.62.58.12,1.21-.15,1.77.21-.11.26-.33.29-.57.25h-.02Z" fill="#fffefd" stroke-width="0"/>
        <path d="m29.68,107.26c.19-.08.38-.17.57-.25,1.77.13,3.54.25,5.3.4,1.86.17,3.72.15,5.57-.09.86-.11,1.52.2,1.9,1.02.38.8-.52.85-.75,1.29-.49.94-1.33,1.02-2.29,1.11-2.82.25-5.62.03-8.42-.22-.62-.05-.9-.24-.89-.93.02-.9-.45-1.65-1.01-2.33h.02Z" fill="#fffefd" stroke-width="0"/>
        <path d="m63.43,107c.19.08.38.16.57.25-.49.57-1.01,1.23-.96,1.94.1,1.3-.71,1.37-1.57,1.43-2.85.19-5.7.4-8.55.07-.43-.05-2.35-1.62-2.4-1.97-.09-.66,1.04-1.49,2.04-1.39,1.55.16,3.11.26,4.66.16,2.07-.14,4.14-.32,6.2-.48h0Z" fill="#fffefd" stroke-width="0"/>
        <path d="m57.66,82.11c-1.44-1.87-2.72-3.52-3.99-5.17-.27-.35-.13-.62.15-.89.37-.36.67-.8,1.06-1.13.52-.45.66-1.46,1.51-1.34.82.11,1.99,2.04,1.91,2.91-.18,1.78-.39,3.55-.62,5.63h-.02Z" fill="#fffefd" stroke-width="0"/>
        <path d="m36.01,82.13c-.23-2.15-.44-3.96-.61-5.77-.07-.78,1.19-2.59,1.9-2.84.2-.07.33-.03.45.11.11.13.23.26.32.41.63.92,2.03,1.57,1.95,2.6-.07.92-1.14,1.76-1.79,2.62-.67.89-1.36,1.75-2.22,2.87h0Z" fill="#fffefd" stroke-width="0"/>
        <path d="m52.16,86.65c-.79-1.9-.95-3.72-1.38-5.45-.4-1.61.22-2.85,1.68-3.7.22-.13.4-.22.55,0,.56.85,1.53,1.47,1.03,2.82-.72,1.98-1.22,4.05-1.88,6.33Z" fill="#fffefd" stroke-width="0"/>
        <path d="m41.54,86.74c-.74-2.57-1.38-4.78-2-7-.14-.48.88-2.25,1.3-2.34.07-.02.16,0,.24.02.96.28,2.13,2.34,1.9,3.36-.42,1.88-.69,3.79-1.44,5.96Z" fill="#fffefd" stroke-width="0"/>
        <path d="m54.85,99.73c-.77-3.47-1.54-6.95-2.3-10.42l.23-.13c1.11,1.69,2.22,3.37,3.32,5.06.19.29.02.58-.04.87-.32,1.52-.63,3.04-.95,4.56-.08.02-.17.04-.25.06h0Z" fill="#fefdfb" stroke-width="0"/>
        <path d="m38.63,99.88c-.06-.28-.09-.41-.12-.54-.75-3.7.07-7.07,2.45-10.12.03.97-1.76,9.31-2.33,10.65h0Z" fill="#fefdfb" stroke-width="0"/>
        <path d="m28.23,112.34c-.46-.6-1.05-1.11-1.19-1.85-.18-.93-.08-1.81.8-2.4.46-.31,1-.5,1.38.03.56.78.92,1.66.49,2.65-.3.7-.9,1.11-1.48,1.57Z" fill="#fefcf9" stroke-width="0"/>
        <path d="m64.1,111.17c-.35-.73-.41-1.48-.09-2.24.22-.51.36-1.11,1.07-1.11s1.23.47,1.45,1.09c.25.73.33,1.51-.17,2.22-.27.38-.52.78-.78,1.17-.98.25-1.38-.25-1.49-1.14h0Z" fill="#fefdf9" stroke-width="0"/>
        <path d="m26.77,101.25c.48,1.56.9,2.94,1.35,4.41-1.22.03-2.32-.35-3.44-.51-.55-.08-.42-.41-.19-.73.72-1,1.44-2.01,2.27-3.17h.01Z" fill="#fefdfa" stroke-width="0"/>
        <path d="m66.91,101.25c.82,1.14,1.51,2.12,2.22,3.08.31.43.43.75-.27.86-1.05.17-2.09.37-3.32.58.47-1.56.89-2.95,1.37-4.53h0Z" fill="#fefdfa" stroke-width="0"/>
        <path d="m48.24,110.65c.13-.5.09-.99.37-1.41.39-.56.76-1.11,1.16,0,.04.11.15.21.23.3,1.33,1.56,1.28,1.49-.28,2.86-1,.88-1.2.42-1.33-.53-.06-.42-.11-.85-.16-1.23h.01Z" fill="#fefdfa" stroke-width="0"/>
        <path d="m45.4,110.78c-.06.84,0,1.78-.5,2.08-.54.32-1.01-.58-1.51-.92-1.19-.79-1.17-1.02-.12-2.02.12-.12.23-.27.38-.34.42-.2.19-1.12.86-.9.61.2.78.86.84,1.48.02.26.05.51.06.61h-.01Z" fill="#fefdfa" stroke-width="0"/>
        <path d="m11.86,108.4c-.17-1.6.52-3.05,1.71-3.58.62-.28.99-.35.99.61.01,2.05-.11,2.26-2.7,2.97Z" fill="#fdfbf6" stroke-width="0"/>
        <path d="m81.93,107.85c-.04.22.07.67-.31.54-.8-.28-1.72-.43-2.26-1.15-.54-.71-.24-1.6-.16-2.39.04-.43.58-.16.86-.05.99.38,1.88,1.87,1.87,3.05Z" fill="#fdfbf6" stroke-width="0"/>
        <path d="m35.18,74.27c-.18-1.65-.34-3.06-.53-4.79.8,1.09,1.42,1.96,2.07,2.81.29.37,0,.54-.19.73-.39.38-.8.74-1.34,1.25h-.01Z" fill="#fcfaf5" stroke-width="0"/>
        <path d="m58.86,70.62c-.1,1.15-.21,2.29-.31,3.44-.13-.01-.24.01-.29-.03-1.04-.89-1.16-1.9-.37-3.03.22-.31.45-.63.67-.94.5-.03.39.28.3.56Z" fill="#fefcf9" stroke-width="0"/>
        <path d="m32.32,103.66c.25.75.36,1.25.57,1.7.35.76.13.96-.66.92-1.36-.07-1.42-.14-.72-1.32.21-.36.44-.71.82-1.3h-.01Z" fill="#fcfaf4" stroke-width="0"/>
        <path d="m61.29,103.86c.56.25.66.7.86,1.05.2.35.69.7.43,1.11-.24.38-.79.18-1.2.24-.78.11-.89-.21-.61-.87.2-.47.33-.97.52-1.53Z" fill="#fcfaf4" stroke-width="0"/>
        <path d="m46.84,3.7c-.05.51-.32.79-.74.81-.48.02-.83-.25-.8-.77.02-.44.32-.66.77-.66s.66.3.76.63h.01Z" fill="#faf7ee" stroke-width="0"/>
        <path d="m64.1,111.17c.55.31.81,1,1.49,1.14-.25.32-.51.63-.55,1.05-.63-.71-1.25-1.42-1.88-2.13.32-.02.63-.04.95-.06h0Z" fill="#be942e" stroke-width="0"/>
        <path d="m45.07,91.18c-.09-.26-.18-.52-.27-.77-.08-.33-.07-.64.32-.98.25.68.19,1.22-.05,1.76h0Z" fill="#dcc490" stroke-width="0"/>
        <path d="m25.72,81.74c.1.18.02.45.29.54,0,.38-.12.71-.44,1-.11-.57-.09-1.07.15-1.54Z" fill="#dec77b" stroke-width="0"/>
        <path d="m48.88,90.4c-.09.26-.17.52-.26.78-.25-.47-.2-.96-.17-1.51.52.09.47.41.43.73Z" fill="#dfc99a" stroke-width="0"/>
        <path d="m67.72,82.47c.08-.24.17-.49.25-.73.25.46.25.95.17,1.56-.31-.25-.39-.53-.42-.83Z" fill="#dcc473" stroke-width="0"/>
        <path d="m45.37,86.95c.22.36.17.68-.05.76-.37.14-.24-.19-.2-.35.03-.11.12-.21.25-.41Z" fill="#c8a24c" stroke-width="0"/>
        <path d="m66.58,51.58c-.15.08-.29.17-.44.25.08-.4.16-.8.26-1.25.4.33.2.68.18,1Z" fill="#e7d69e" stroke-width="0"/>
        <path d="m48.26,86.94c.12.16.23.24.26.34.02.09-.05.21-.08.32-.08-.08-.2-.15-.24-.24-.03-.1.03-.22.06-.42Z" fill="#c8a24c" stroke-width="0"/>
        <path d="m58.86,70.62c-.1-.19-.2-.38-.3-.56.05-.25.33-.58.42-.46.25.31.08.7-.12,1.03h0Z" fill="#e8d8a4" stroke-width="0"/>
        <path d="m27.55,52.08c-.15-.08-.29-.17-.44-.25v-.94c.35.39.46.76.44,1.19Z" fill="#f3eace" stroke-width="0"/>
        <path d="m73.06,114.71c.49,1.83.93,3.45,1.35,5.08.19.74-.17,1.18-.9,1.27-4.04.46-8.06,1.01-12.11,1.31-6.53.49-13.07.61-19.61.3-4.71-.22-9.41-.59-14.08-1.23-.57-.08-.96-.08-1.39.52-1.41,1.94-4.91,2.04-6.57.3-.79-.84-.77-1.69-.04-2.54.28-.32.61-.77,1.06-.61.53.19.11.68.09,1.02-.07,1.17.69,1.47,1.59,1.66,1.04.22,1.81-.25,1.91-1.23.2-1.79,1.22-2.43,2.87-2.46.3.44-.07.88-.11,1.36,1.32.42,2.68.38,3.99.61.36.06.65-.01.85-.4.65-1.24.66-1.23,2.08-1.64.02.17.04.33.07.48.14.6-.53,1.5-.1,1.67.88.36,1.94.34,2.92.39.55.03.49-.51.53-.87.18-1.5.37-3,.52-4.51.05-.51.15-.96.62-1.2.42-.21.9-.62,1.31-.37.38.24.08.79.03,1.21-.13,1.24-.25,2.49-.37,3.73,2.8-.45,5.55.1,8.29-.02.78-.03,1.17.56,1.05,1.32-.18,1.14.41,1.33,1.33,1.21.85-.11,1.8.31,2.33-.96.33-.79,1.3-.54,1.67.37.15.37.38.41.7.39.34-.03.42-.21.4-.52-.12-1.35,1-1.26,1.84-1.61.05.56.09,1.03.12,1.51.03.41.2.65.66.58.44-.06.41-.35.37-.67-.03-.21-.05-.43-.03-.65.07-.94.9-1.24,1.54-1.31.59-.06.54.75.5,1.19-.1,1.13.45,1.35,1.39,1.19.13-.02.26-.03.39-.03,1.11-.03,1.82-.28,1.41-1.7-.33-1.11-.34-2.3-.56-3.45-.24-1.24.21-2,1.56-2.39.35,2,.78,3.97,1.02,5.96.12,1.01.55,1.23,1.43,1.1,1.41-.19,2.83-.35,4.24-.53.26-.03.56-.03.57-.38,0-.47-.38-.39-.66-.39-.56,0-1.12.06-1.68.04-.96-.02-1.42-.66-1.47-1.5-.05-.81.55-1.21,1.28-1.4,1.24-.32,2.61-.15,3.8-1.19h0Z" fill="#be942e" stroke-width="0"/>
        <path d="m30.41,122.66c.5.15,1.09.27,1.07.93-.02.71-.58.91-1.2.88-.55-.03-1.1-.28-1.09-.88.01-.68.63-.84,1.22-.93Z" fill="#c29930" stroke-width="0"/>
        <path d="m33.46,124.75c-.75.02-1.31-.2-1.34-.86-.02-.59.54-.89,1.07-.89.56,0,1.16.18,1.19.9.02.67-.49.82-.92.86h0Z" fill="#c39a33" stroke-width="0"/>
        <path d="m70.26,114c-.49-.1-1.03-.21-1.06-.88-.03-.59.36-.84.9-.87.65-.04,1.14.23,1.17.9.03.59-.52.71-1.01.85Z" fill="#c29a32" stroke-width="0"/>
        <path d="m24.21,115.86c.35.05.82.29.73.86-.1.67-.67.81-1.29.76-.55-.05-.98-.37-.9-.87.09-.65.67-.83,1.46-.74h0Z" fill="#c19830" stroke-width="0"/>
        <path d="m58.78,66.13c-1.28,2.73-3.15,5.05-5.07,7.34-1.87,2.23-3.97,4.24-6.24,6.07-.42.34-.72.51-1.2.08-1.03-.92-2.15-1.74-3.07-2.79-.07-.3.13-.39.35-.46,1.07.02,1.64.9,2.37,1.46.67.52,1.17.55,1.83,0,1.16-.98,2.24-2.04,3.34-3.08.86-.81,1.18-1.72,1.18-2.88-.03-6.37,0-12.75,0-19.12,0-.87,0-1.74.33-2.56.14-.19.31-.32.56-.24.71.54.51,1.34.52,2.04.02,6.02,0,12.04.02,18.06,0,.47-.07.95.1,1.55,1.2-1.27,2.06-2.68,3.01-4.03.43-.61.67-1.46,1.59-1.6.15,0,.29.05.4.15h-.01Z" fill="#c39b32" stroke-width="0"/>
        <path d="m58.78,66.13c-.11-.01-.22-.02-.33-.03-.48-.79.04-1.43.37-2.05,1.91-3.58,3.26-7.37,4.2-11.3.64-2.65,1.03-5.35,1.25-8.07-.04-.73.88-1.71-.55-2.07-.64-.05-1.25.19-1.89.15-.41-.06-.78-.19-.99-.58.37-.69.94-.34,1.46-.29,3.2.08,3.25.08,2.99,3.25-.53,6.6-2.22,12.89-5.21,18.81-.38.76-.87,1.46-1.3,2.19h0Z" fill="#bc902e" stroke-width="0"/>
        <path d="m39.77,73.2c-3.8-4.31-6.56-9.22-8.48-14.61.1-.1.22-.14.36-.12.62.19.81.75,1.03,1.26,1.81,4.29,4.23,8.22,7.05,11.91.36.47.83.93.4,1.61-.13.07-.25.05-.36-.04h0Z" fill="#c19c33" stroke-width="0"/>
        <path d="m28.41,44.78c-.02-.87-.34-1.9.03-2.55.42-.74,1.56-.21,2.38-.34,2.94-.47,5.86-.98,8.69-1.95.24-.08.51-.09.76-.13.31-.13.58-.16.67.27-.27.85-1.06.96-1.75,1.15-3.1.87-6.21,1.74-9.47,1.69-.1.06-.2.13-.29.2-.58.42-.22,1.22-.69,1.68-.11.07-.22.06-.33,0h0Z" fill="#bd9130" stroke-width="0"/>
        <path d="m28.41,44.78h.22c.15-.08.28-.07.42.03.67,1.12.56,2.39.74,3.61.41,2.69,1.08,5.31,1.8,7.93.2.72.6,1.47,0,2.2-.1,0-.2,0-.29.02-1.66-4.46-2.64-9.05-2.88-13.81v.02Z" fill="#bf9932" stroke-width="0"/>
        <path d="m48.98,37.99c2.82,1.41,5.84,2.26,8.85,3.12-.09.31-.3.49-.57.63-1.23.38-2.25-.41-3.37-.64-1.51-.31-2.98-.88-4.35-1.61-.5-.27-1-.55-1.01-1.22.07-.22.18-.4.46-.28h-.01Z" fill="#c49732" stroke-width="0"/>
        <path d="m57.25,41.35c.19-.08.38-.16.58-.24,1.49.26,2.98.52,4.47.78-.47.08-.98-.06-1.42.23-1.11.74-2.73.4-3.63-.76h0Z" fill="#c19832" stroke-width="0"/>
        <path d="m48.98,37.99c-.11.1-.21.2-.32.3-.97.48-1.74-.43-2.66-.38-.16-.11-.26-.25-.28-.45,1.39-1.67,2.23,0,3.25.54h0Z" fill="#c79b34" stroke-width="0"/>
        <path d="m40.85,40.02c-.19-.07-.39-.14-.58-.21,1.13-.43,2.26-.87,3.4-1.3.29-.14.37.04.42.27-.71,1.24-2.04,1.75-3.24,1.24Z" fill="#c49834" stroke-width="0"/>
        <path d="m39.77,73.2c.14-.02.27-.04.41-.06.19-.09.39-.08.59-.03.78.54,1.57,1.07,1.56,2.18-.09.19-.2.34-.45.24-.84-.66-1.46-1.51-2.11-2.33Z" fill="#c39d34" stroke-width="0"/>
        <path d="m43.98,38.74c-.11-.08-.21-.16-.32-.24.69-.35,1.38-.7,2.06-1.05.11.07.22.15.33.22-.47,1.17-.88,1.39-2.08,1.08h0Z" fill="#c79a33" stroke-width="0"/>
        <path d="m41.88,75.53c.1-.1.2-.21.29-.31.97-.09,1.42.36,1.33,1.33-.1.1-.2.19-.31.29-.51-.36-.97-.78-1.32-1.31h0Z" fill="#c8a332" stroke-width="0"/>
        <path d="m68.62,108.13c-.35.05-.58.1-.66-.18-.05-.2.09-.3.26-.38,1.1-.54,2.27-.79,3.46-1.01.24-.05.46.05.46.31,0,.12-.17.32-.3.36-1.11.33-2.23.63-3.22.91h0Z" fill="#c49d36" stroke-width="0"/>
        <path d="m77.78,105.23c-1.44.68-2.64,1.1-4.11,1.38.88-1.31,2.37-1.82,4.11-1.38Z" fill="#c29a33" stroke-width="0"/>
        <path d="m22.11,106.57c1.09.22,2.1.43,3.05.86.23.11.7.14.52.58-.12.31-.45.16-.69.09-1-.26-1.99-.54-2.99-.82-.25-.07-.54-.15-.47-.48.08-.36.39-.25.57-.23h.01Z" fill="#c49c36" stroke-width="0"/>
        <path d="m20.04,106.59c-1.53-.27-2.73-.68-4.05-1.34,1.62-.48,3.08,0,4.05,1.34Z" fill="#c29a33" stroke-width="0"/>
        <path d="m33.09,109.34c-.22,0-.44.02-.65,0-.44-.06-1.19.24-1.25-.3-.07-.6.7-.63,1.18-.69.85-.11,1.72-.2,2.55.17.23.1.51.23.4.56-.08.23-.32.26-.54.26h-1.69Z" fill="#c59e3a" stroke-width="0"/>
        <path d="m39.79,108.64c.54,0,.81-.03,1.06.01.14.03.26.19.38.29-.11.12-.2.34-.32.35-1.16.16-2.32.28-3.48.4-.15.02-.36,0-.4-.22-.06-.29.17-.38.36-.45.86-.32,1.78-.33,2.4-.39h0Z" fill="#c59e38" stroke-width="0"/>
        <path d="m60.51,109.33h-1.56c-.26,0-.56-.02-.61-.34-.04-.24.17-.38.38-.46,1.19-.44,2.37-.37,3.53.09.13.05.3.26.29.37-.02.23-.24.33-.47.34h-1.56Z" fill="#c59e3a" stroke-width="0"/>
        <path d="m54.02,108.63c.54.08,1.31.16,2.06.32.25.05.67.14.57.55-.08.32-.41.21-.65.19-.93-.09-1.87-.21-2.8-.31-.31-.03-.73-.06-.72-.38.02-.46.48-.36.81-.37h.74-.01Z" fill="#c59e38" stroke-width="0"/>
        <path d="m42.97,120.82c-.79,0-1.78.02-2.77-.01-.34,0-.85.15-.86-.48,0-.59.43-.54.82-.53,1.98.08,3.96.17,5.94.25.38.02.72.15.7.58-.02.54-.48.38-.8.36-.95-.04-1.89-.11-3.05-.18h.02Z" fill="#fdfbf6" stroke-width="0"/>
        <path d="m69.97,117.35c.43-.57.86-.46,1.45-.23-.48.51-.91.39-1.45.23Z" fill="#fbf8f1" stroke-width="0"/>
        <path d="m43.5,76.55c-.44-.44-.89-.89-1.33-1.33-.52-.6-1.04-1.2-1.56-1.8-.38-.7-.59-1.44-.6-2.23-.02-6.62-.03-13.23,0-19.85,0-.3.03-.6.1-.9.47-.99,1.18-.67,1.84-.28,1.23.73,2.43,1.5,3.6,2.31.91.63,1.67.66,2.58.03.99-.69,2-1.37,3.04-1.99.52-.31,1.04-.66,1.68-.28,0,7.54.02,15.08.03,22.62,0,.6-.19,1.06-.61,1.5-1.5,1.56-3.09,3.03-4.71,4.46-.59.52-.98.47-1.52-.06-.8-.78-1.69-1.48-2.54-2.21h0Z" fill="#fff" stroke-width="0"/>
        <path d="m52.86,50.23c-1.72,1.07-3.46,2.1-5.14,3.22-.63.42-1.07.45-1.71,0-1.75-1.18-3.56-2.28-5.34-3.41-.56.25-1.01,0-1.45-.3-2.99-2-6.06-3.85-9.03-5.87-.51-.35-1.17-.63-1.02-1.46,4.04-.11,7.9-1.07,11.69-2.4,1.09-.32,2.13-.74,3.13-1.27.69-.36,1.39-.72,2.08-1.08,1.14-.95,1.71.49,2.6.62,2.62,1.7,5.61,2.37,8.59,3.07,1.21.26,2.37.76,3.63.76.35.03.7.06,1.05.08.65.23,1.33.05,1.99.11.2,0,.4,0,.59.05.28.72-.29,1.03-.72,1.32-3.1,2.11-6.3,4.06-9.43,6.13-.41.27-.87.37-1.36.26-.07.04-.11.09-.15.16Z" fill="#ed3039" stroke-width="0"/>
        <path d="m53.01,50.07c3.47-2.26,6.93-4.52,10.4-6.79.39-.26.75-.55,1.13-.83.86.57.26,1.37.32,2.06-.48,7.69-2.67,14.87-6.4,21.59-1.59,2.46-3.15,4.95-5.45,7.37,0,0,0-23.4,0-23.4Z" fill="#020202" stroke-width="0"/>
        <path d="m64.85,44.51c-.21-.67.36-1.46-.32-2.06-.17-.02-.35-.03-.52-.05l-.12-.05.05-.12c1.23.11,1.4.53.91,2.28Z" fill="#b9872c" stroke-width="0"/>
        <path d="m63.94,42.23s.05.11.07.17c-.7,0-1.42.18-2.08-.2.67,0,1.34.02,2,.03h0Z" fill="#a54824" stroke-width="0"/>
        <path d="m29.16,42.42c3.17,2.38,6.62,4.33,9.9,6.54.54.36,1.07.73,1.6,1.1,0,7.79-.03,15.57-.04,23.36-.15-.09-.29-.18-.44-.28-2.81-3.49-5.27-7.2-7.13-11.28-.5-1.09-.97-2.2-1.46-3.29-1.05-3.82-2.2-7.61-2.54-11.58-.06-.73-.13-1.46-.19-2.19-.12-.79-.18-1.57.03-2.35.09,0,.18,0,.28-.02h0Z" fill="#0a9648" stroke-width="0"/>
        <path d="m28.88,42.44c-.01.78-.02,1.57-.03,2.35-.07,0-.14,0-.22,0,.13-.77-.32-1.61.25-2.34Z" fill="#ae9431" stroke-width="0"/>
      </g>
    </g>
  </g>
</svg>